<?xml version="1.0" encoding="UTF-8" standalone="no"?>
<svg
   id="svg6"
   height="96"
   style=""
   viewBox="0 0 96 96"
   width="96"
   version="1.1"
   sodipodi:docname="reboot.svg"
   inkscape:version="1.2.2 (b0a8486541, 2022-12-01)"
   xmlns:inkscape="http://www.inkscape.org/namespaces/inkscape"
   xmlns:sodipodi="http://sodipodi.sourceforge.net/DTD/sodipodi-0.dtd"
   xmlns="http://www.w3.org/2000/svg"
   xmlns:svg="http://www.w3.org/2000/svg">
  <defs
     id="defs6" />
  <sodipodi:namedview
     id="namedview4"
     pagecolor="#ffffff"
     bordercolor="#000000"
     borderopacity="0.25"
     inkscape:showpageshadow="2"
     inkscape:pageopacity="0.0"
     inkscape:pagecheckerboard="0"
     inkscape:deskcolor="#d1d1d1"
     showgrid="false"
     inkscape:zoom="4.3489583"
     inkscape:cx="133.71018"
     inkscape:cy="47.942515"
     inkscape:window-width="1920"
     inkscape:window-height="1002"
     inkscape:window-x="0"
     inkscape:window-y="0"
     inkscape:window-maximized="1"
     inkscape:current-layer="svg6" />
  <path
     style="fill:none;fill-opacity:1;stroke:#af905e;stroke-width:6.51923;stroke-linecap:round;stroke-miterlimit:4;stroke-dasharray:none;stroke-opacity:1;stop-color:#31363b"
     sodipodi:type="arc"
     sodipodi:cx="-48.833851"
     sodipodi:cy="-48.741177"
     sodipodi:rx="45.573143"
     sodipodi:ry="45.480133"
     sodipodi:start="4.9682955"
     sodipodi:end="2.8702093"
     sodipodi:arc-type="arc"
     transform="scale(-1)"
     d="M -37.298262,-92.740214 A 45.573143,45.480133 0 0 1 -3.4069863,-45.100153 45.573143,45.480133 0 0 1 -44.482782,-3.4688021 45.573143,45.480133 0 0 1 -92.739062,-36.549571"
     id="path7-36-2"
     class=" "
     sodipodi:open="true" />
  <path
     d="m 95.999151,68.000388 c 0,15.464237 -12.53567,27.999613 -27.99962,27.999613 -15.463869,0 -27.999609,-12.53566 -27.999609,-27.999613 0,-15.463861 12.53574,-27.999618 27.999609,-27.999618 15.46395,0 27.99962,12.535757 27.99962,27.999618"
     id="path3950-3-5-9"
     class=" "
     style="fill:#666666;fill-opacity:1;stroke:none;stroke-width:0.195597" />
  <path
     d="m 83.641201,69.855034 c 0.3104,0.487338 0.43639,1.089397 0.308,1.695533 -0.002,0.0168 -0.002,0.028 -0.008,0.04352 l -0.53772,-0.120999 0.53492,0.121839 c -0.4884,2.106811 -1.3785,4.020493 -2.57237,5.679394 -1.2269,1.704853 -2.7726,3.139993 -4.53094,4.24041 -0.016,0.018 -0.04,0.0304 -0.0612,0.04392 l -2.4e-4,-6.4e-4 c -0.016,0.0152 -0.0552,0.0324 -0.10039,0.05744 -0.032,0.018 -0.0588,0.0312 -0.084,0.04484 -1.76702,1.06369 -3.73835,1.7955 -5.8108,2.130975 -1.99498,0.322796 -4.08247,0.279636 -6.170359,-0.186317 -0.012,-0.0052 -0.028,-0.0052 -0.04,-0.0084 l 0.1228,-0.530709 -0.1232,0.528117 c -2.13461,-0.482154 -4.0733,-1.36079 -5.75396,-2.539286 -1.72714,-1.210935 -3.18104,-2.73673 -4.29566,-4.472231 -0.016,-0.0176 -0.028,-0.04016 -0.044,-0.06088 l 7.2e-4,-2.44e-4 c -0.016,-0.018 -0.032,-0.0548 -0.0584,-0.09864 -0.016,-0.0308 -0.032,-0.05872 -0.0456,-0.0836 -1.07739,-1.743976 -1.81902,-3.69007 -2.15861,-5.735534 -0.3272,-1.969233 -0.2832,-4.029949 0.1888,-6.090689 0.002,-0.0156 0.002,-0.0236 0.008,-0.038 l 0.53767,0.120998 -0.53511,-0.121638 c 0.48839,-2.10686 1.37854,-4.020529 2.5724,-5.679439 1.22682,-1.704792 2.77256,-3.139961 4.53078,-4.24025 0.016,-0.0176 0.04,-0.03 0.0616,-0.04416 l 2.4e-4,6.36e-4 c 0.02,-0.0152 0.0552,-0.032 0.0996,-0.05708 0.032,-0.0184 0.0584,-0.0312 0.0844,-0.04496 1.5237,-0.917199 3.19935,-1.587722 4.96069,-1.969777 1.519379,-0.329596 3.104079,-0.444874 4.711169,-0.319596 l -0.13239,-3.547639 c -0.008,-0.122959 0.032,-0.248717 0.10999,-0.354355 0.1832,-0.239757 0.52888,-0.288516 0.77211,-0.107439 l -0.33199,0.434898 0.33119,-0.433354 7.95778,5.911759 c 0.0428,0.026 0.0832,0.05956 0.11799,0.09968 0.2008,0.225997 0.1776,0.570156 -0.052,0.768026 l -0.001,-10e-4 -7.49709,6.476723 c -0.0952,0.09512 -0.2256,0.155558 -0.3712,0.160758 -0.30439,0.0128 -0.56023,-0.223477 -0.57139,-0.523841 l -0.1584,-4.23865 c -1.23598,-0.155158 -2.4568,-0.109479 -3.62443,0.113838 -1.348139,0.257877 -2.631199,0.752982 -3.791029,1.449489 -0.016,0.0124 -0.028,0.0196 -0.0464,0.0324 l -0.0432,0.0288 c -0.012,0.0096 -0.024,0.018 -0.04,0.026 -0.02,0.0152 -0.042,0.0228 -0.064,0.034 -1.24659,0.783377 -2.34109,1.801151 -3.20804,3.006503 -0.84843,1.179352 -1.4813,2.540501 -1.82906,4.040589 -0.34199,1.476036 -0.37679,2.950839 -0.14519,4.358948 0.23999,1.45896 0.76439,2.844005 1.52774,4.082369 0.012,0.0172 0.024,0.0288 0.032,0.04628 l 0.028,0.04248 c 0.008,0.0152 0.016,0.0248 0.028,0.0388 0.012,0.018 0.024,0.0424 0.032,0.06384 0.79359,1.230499 1.8247,2.310856 3.04576,3.166673 1.19483,0.837476 2.57377,1.462172 4.093709,1.805591 1.49534,0.337555 2.98944,0.371875 4.41598,0.143358 1.47802,-0.236717 2.8812,-0.754478 4.13578,-1.507979 0.016,-0.0124 0.032,-0.0204 0.0464,-0.0324 l 0.0424,-0.0284 c 0.012,-0.0096 0.028,-0.018 0.0408,-0.0268 0.016,-0.0152 0.042,-0.0228 0.064,-0.034 1.24654,-0.783369 2.34105,-1.801131 3.20803,-3.006511 0.84179,-1.170012 1.4713,-2.519513 1.82058,-4.005569 l 0.001,-0.0084 1.6e-4,-0.002 0.002,-0.0112 5.2e-4,-0.0052 0.002,-0.0112 5.2e-4,-0.0044 c 0.002,-0.0112 0.002,-0.0176 0.008,-0.032 l 4.4e-4,-1.2e-5 c 0.1492,-0.605996 0.52875,-1.098353 1.02506,-1.406201 0.49356,-0.306316 1.10343,-0.43093 1.7173,-0.304476 l 0.016,0.002 0.002,3.88e-4 0.012,0.0017 0.002,6.88e-4 0.012,0.0017 0.002,5.6e-4 c 0.012,0.0021 0.016,0.0056 0.032,0.0096 l 4e-5,4.36e-4 c 0.61387,0.147158 1.1127,0.521905 1.42486,1.011998 z"
     id="path1118-3-1"
     style="fill:#ffffff;fill-opacity:1;stroke-width:0.0789225" />
</svg>
