<?xml version="1.0" encoding="UTF-8" standalone="no"?>
<svg
   id="svg5"
   height="96"
   style=""
   viewBox="0 0 96 96"
   width="96"
   version="1.1"
   sodipodi:docname="suspend.svg"
   inkscape:version="1.2.2 (b0a8486541, 2022-12-01)"
   xmlns:inkscape="http://www.inkscape.org/namespaces/inkscape"
   xmlns:sodipodi="http://sodipodi.sourceforge.net/DTD/sodipodi-0.dtd"
   xmlns="http://www.w3.org/2000/svg"
   xmlns:svg="http://www.w3.org/2000/svg">
  <defs
     id="defs6" />
  <sodipodi:namedview
     id="namedview4"
     pagecolor="#ffffff"
     bordercolor="#000000"
     borderopacity="0.25"
     inkscape:showpageshadow="2"
     inkscape:pageopacity="0.0"
     inkscape:pagecheckerboard="0"
     inkscape:deskcolor="#d1d1d1"
     showgrid="false"
     inkscape:zoom="3.0751779"
     inkscape:cx="77.556488"
     inkscape:cy="90.563865"
     inkscape:window-width="1920"
     inkscape:window-height="1002"
     inkscape:window-x="0"
     inkscape:window-y="0"
     inkscape:window-maximized="1"
     inkscape:current-layer="svg5" />
  <path
     style="fill:none;fill-opacity:1;stroke:#af905e;stroke-width:6.51055;stroke-linecap:round;stroke-miterlimit:4;stroke-dasharray:none;stroke-opacity:1;stop-color:#31363b"
     sodipodi:type="arc"
     sodipodi:cx="48.806824"
     sodipodi:cy="48.637768"
     sodipodi:rx="45.550655"
     sodipodi:ry="45.380959"
     sodipodi:start="1.8083074"
     sodipodi:end="6.0161774"
     sodipodi:arc-type="arc"
     d="M 38.08947,92.744728 A 45.550655,45.380959 0 0 1 3.365623,45.49366 45.550655,45.380959 0 0 1 44.312155,3.4782772 45.550655,45.380959 0 0 1 92.743376,36.664158"
     id="path7-7"
     class=" "
     sodipodi:open="true" />
  <path
     d="m 95.998007,67.996953 c 0,15.464231 -12.53566,27.999604 -27.9996,27.999604 -15.46387,0 -27.99961,-12.535657 -27.99961,-27.999604 0,-15.463854 12.53574,-27.999605 27.99961,-27.999605 15.46394,0 27.9996,12.535751 27.9996,27.999605"
     id="path3950-3-5-9-5-6"
     class=" "
     style="fill:#666666;fill-opacity:1;stroke:none;stroke-width:0.195597" />
  <path
     d="M 55.998457,79.568999 V 56.424912 c 0.028,-5.903645 7.9724,-5.903645 7.99988,0 v 23.144087 c -0.024,5.90364 -7.9724,5.90364 -7.99988,0 z m 6.39991,-23.144087 z"
     id="path8-6-7-7-06"
     sodipodi:nodetypes="cccccccccc"
     style="fill:#ffffff;fill-opacity:1;stroke-width:3.99994" />
  <path
     d="M 71.998227,79.569007 V 56.424916 c 0.024,-5.903649 7.97245,-5.903649 7.99989,0 v 23.144091 c -0.024,5.903632 -7.97241,5.903632 -7.99989,0 z m 6.39991,-23.144091 z"
     id="path8-6-7-7-06-2"
     sodipodi:nodetypes="cccccccccc"
     style="fill:#ffffff;fill-opacity:1;stroke-width:3.99994" />
</svg>
