<?xml version="1.0" encoding="UTF-8" standalone="no"?>
<svg
   width="22"
   height="22"
   version="1.1"
   id="svg1"
   sodipodi:docname="cantata-symbolic.svg"
   inkscape:version="1.3.2 (091e20ef0f, 2023-11-25)"
   xmlns:inkscape="http://www.inkscape.org/namespaces/inkscape"
   xmlns:sodipodi="http://sodipodi.sourceforge.net/DTD/sodipodi-0.dtd"
   xmlns="http://www.w3.org/2000/svg"
   xmlns:svg="http://www.w3.org/2000/svg">
  <defs
     id="defs1" />
  <sodipodi:namedview
     id="namedview1"
     pagecolor="#ffffff"
     bordercolor="#999999"
     borderopacity="1"
     inkscape:showpageshadow="2"
     inkscape:pageopacity="0"
     inkscape:pagecheckerboard="0"
     inkscape:deskcolor="#d1d1d1"
     inkscape:zoom="8.6818182"
     inkscape:cx="10.596859"
     inkscape:cy="10.712042"
     inkscape:window-width="1920"
     inkscape:window-height="996"
     inkscape:window-x="0"
     inkscape:window-y="0"
     inkscape:window-maximized="1"
     inkscape:current-layer="svg1" />
  <style
     type="text/css"
     id="current-color-scheme">.ColorScheme-Text { color: #fcfcfc; } </style>
  <g
     id="22-22-cantata-5">
    <path
       style="fill:none"
       d="M 0,0 V 22 H 22 V 0 Z"
       id="path11-3" />
    <path
       style="color:#d6dbf1;fill:none;fill-opacity:1;stroke:#e1e1e1;stroke-width:1.07124;stroke-linecap:round;stroke-miterlimit:4;stroke-dasharray:none;stroke-opacity:1;stop-color:#31363b"
       sodipodi:type="arc"
       sodipodi:cx="10.968341"
       sodipodi:cy="-11.000616"
       sodipodi:rx="7.4964247"
       sodipodi:ry="7.464735"
       sodipodi:start="4.0504389"
       sodipodi:end="3.011132"
       sodipodi:open="true"
       sodipodi:arc-type="arc"
       d="m 6.3606167,-16.888763 a 7.4964247,7.464735 0 0 1 9.1386053,-0.05883 7.4964247,7.464735 0 0 1 2.404928,8.7794127 7.4964247,7.464735 0 0 1 -7.902889,4.569927 7.4964247,7.464735 0 0 1 -6.4656407,-6.4312647"
       id="path7-3-3"
       class="ColorScheme-Text"
       transform="rotate(90)" />
    <path
       d="M 10.975132,13.333038 Z M 11.74454,4.1110236 c 0,-0.499205 0.460325,-0.860333 0.934082,-0.761215 l 0.08889,0.02408 2.298124,0.766176 c 0.403096,0.134441 0.620937,0.570121 0.486573,0.973211 -0.124735,0.374322 -0.509494,0.588874 -0.886561,0.509988 l -0.08669,-0.02341 -1.295504,-0.431897 v 5.8570154 c 0,1.27476 -1.033412,2.30812 -2.308263,2.30812 -1.274975,3.3e-5 -2.308402,-1.033307 -2.308402,-2.30809 0,-1.2747864 1.033436,-2.3081164 2.308283,-2.3081164 0.215843,0 0.424701,0.02964 0.622889,0.08503 l 0.146665,0.04641 z"
       style="fill:#af905e;fill-opacity:1;fill-rule:nonzero;stroke:none;stroke-width:0.769422"
       sodipodi:nodetypes="cccccccccccccscccccccssssccs"
       id="path1415-6" />
  </g>
</svg>
