<?xml version="1.0" encoding="UTF-8" standalone="no"?>
<svg
   id="svg2"
   viewBox="0 0 32 32"
   version="1.1"
   sodipodi:docname="configure.svg"
   width="32"
   height="32"
   inkscape:version="1.2.2 (b0a8486541, 2022-12-01)"
   xmlns:inkscape="http://www.inkscape.org/namespaces/inkscape"
   xmlns:sodipodi="http://sodipodi.sourceforge.net/DTD/sodipodi-0.dtd"
   xmlns="http://www.w3.org/2000/svg"
   xmlns:svg="http://www.w3.org/2000/svg">
  <defs
     id="defs15" />
  <sodipodi:namedview
     id="namedview13"
     pagecolor="#333333"
     bordercolor="#000000"
     borderopacity="1"
     inkscape:pageshadow="2"
     inkscape:pageopacity="0"
     inkscape:pagecheckerboard="true"
     showgrid="true"
     inkscape:showpageshadow="true"
     inkscape:zoom="8.0000004"
     inkscape:cx="5.5624997"
     inkscape:cy="24.187499"
     inkscape:window-width="1920"
     inkscape:window-height="1000"
     inkscape:window-x="0"
     inkscape:window-y="0"
     inkscape:window-maximized="1"
     inkscape:current-layer="svg2"
     inkscape:lockguides="false"
     inkscape:deskcolor="#404040">
    <inkscape:grid
       type="xygrid"
       id="grid1521"
       originx="-22"
       originy="9.9999997" />
  </sodipodi:namedview>
  <style
     type="text/css"
     id="current-color-scheme" />
  <g
     id="configure">
    <path
       id="path14"
       d="M 0,0 V 32 H 32 V 0 Z"
       fill="none" />
    <path
       d="m 19.00001,16.000151 c 0,1.657663 -1.342355,3.000038 -3.00001,3.000038 -1.65626,0 -3.000009,-1.342375 -3.000009,-3.000038 0,-1.65634 1.343749,-2.999962 3.000009,-2.999962 1.657655,0 3.00001,1.343622 3.00001,2.999962 z"
       id="path72-3-75"
       style="color:#e5e9ef;fill:#af905e;fill-opacity:1;stroke-width:0.0357146" />
    <path
       d="m 15.232629,4 c -0.928045,-1.64e-5 -1.817181,0.3457954 -2.47188,0.9588069 -0.6547,0.6129409 -1.022016,1.4449169 -1.017567,2.3096594 v -0.021309 c -0.0086,0.6012995 -0.510205,1.0606142 -1.154765,1.0632112 -0.183649,-0.0029 -0.36289,-0.048724 -0.521358,-0.1363645 l -0.0084,-0.00431 -0.0065,-0.00431 C 8.3880915,7.2775943 6.2333454,7.8197714 5.276502,9.3671845 l -0.8071928,1.2358005 -0.00693,0.01036 c -0.9557115,1.545606 -0.3810484,3.552061 1.2736746,4.448946 h 0.00236 v 0.002 c 0.3603449,0.193831 0.5808128,0.54753 0.5808128,0.93537 0,0.387662 -0.2204726,0.741542 -0.5808128,0.935369 -1.6551658,0.89218 -2.2316008,2.897071 -1.275958,4.440342 l 0.00236,0.002 0.7568864,1.21875 c 0.4513184,0.758847 1.2103701,1.318291 2.1060162,1.5554 0.8956425,0.237273 1.8563717,0.132341 2.6685316,-0.291907 l 0.0084,-0.0039 0.0084,-0.0039 c 0.262265,-0.142614 0.573041,-0.181859 0.866644,-0.108668 0.293442,0.07315 0.541996,0.252817 0.692857,0.498577 l 0.0039,0.0065 0.0039,0.0084 c 0.0953,0.149516 0.146693,0.318249 0.148632,0.492188 v -0.01036 c -1.9e-5,1.788616 1.581054,3.261926 3.50086,3.261926 h 1.527597 c 1.913571,1.69e-4 3.494082,-1.464279 3.503167,-3.247162 v -0.0039 -0.0065 c -0.0012,-0.286455 0.11915,-0.558409 0.336139,-0.760657 0.215182,-0.2005 0.505101,-0.310574 0.809479,-0.311077 0.192108,0.0076 0.379384,0.05589 0.546512,0.144884 l -0.002,-0.002 c 1.657639,0.889881 3.808858,0.355064 4.772269,-1.184659 l 0.800329,-1.242188 0.0039,-0.0065 c 0.467297,-0.747444 0.593771,-1.637675 0.354431,-2.473724 h 0.002 c -0.23914,-0.835853 -0.827948,-1.550038 -1.632547,-1.981398 -0.265335,-0.142217 -0.458403,-0.376117 -0.537368,-0.65199 -0.07891,-0.275522 -0.0375,-0.567564 0.116625,-0.81392 l 0.002,-0.0039 0.002,-0.0039 c 0.09851,-0.160341 0.24158,-0.291551 0.413884,-0.383524 l 0.0039,-0.002 0.0039,-0.0039 c 1.644919,-0.896513 2.218349,-2.889587 1.273671,-4.43182 l 0.153398,0.541193 V 10.868424 L 27.53106,10.614872 26.771886,9.3897335 C 25.81656,7.8411363 23.661829,7.2989281 21.998868,8.1867905 l -0.0039,0.00215 -0.0065,0.00431 c -0.263447,0.144384 -0.575836,0.184407 -0.871538,0.112872 -0.295817,-0.071533 -0.547549,-0.2486986 -0.702149,-0.4943179 l -0.002,-0.00215 -0.002,-0.00215 C 20.314336,7.6580082 20.26517,7.4872091 20.263199,7.3132159 l -0.002,0.042617 C 20.288249,6.4748514 19.932403,5.6205118 19.273165,4.9886364 18.613945,4.3567782 17.705876,3.9996247 16.760124,4 Z m 0,2.1818185 h 1.529777 c 0.313828,-1.244e-4 0.613516,0.1183763 0.832349,0.3281252 0.218811,0.2097298 0.336035,0.4918138 0.326994,0.7840911 v 0.021311 0.021311 c 0.0054,0.5570892 0.170804,1.1015957 0.475622,1.5809647 3.85e-4,6.04e-4 -3.78e-4,0.0014 0,0.002 0.468922,0.74174 1.23437,1.2814595 2.128885,1.4978675 0.896632,0.216908 1.852105,0.09296 2.650243,-0.34517 l -0.01376,0.0065 c 0.566758,-0.3025975 1.256263,-0.1289225 1.582373,0.398435 l 0.601392,0.969462 v 0.01036 l 0.153207,0.251418 c 0.321721,0.525225 0.139452,1.162725 -0.420748,1.468042 l 0.0084,-0.0039 c -0.531356,0.283628 -0.970431,0.696112 -1.275961,1.19105 -0.465494,0.74673 -0.59562,1.637073 -0.356716,2.471592 0.239223,0.835812 0.825444,1.550091 1.630386,1.981532 0.265434,0.142304 0.458457,0.374167 0.537371,0.649861 v 0.002 c 0.07866,0.274695 0.03652,0.565543 -0.116621,0.81179 -4e-4,6.35e-4 3.97e-4,0.0014 0,0.002 l -0.800329,1.240058 -0.0039,0.0065 c -0.327953,0.525329 -1.014834,0.69762 -1.580078,0.394176 l -0.002,-0.002 h -0.002 C 22.609524,21.650462 22.03963,21.500832 21.454908,21.486179 h -0.01376 -0.01376 c -0.930791,-0.0038 -1.824903,0.338912 -2.483318,0.952412 -0.658135,0.613415 -1.026361,1.446691 -1.02214,2.313922 v -0.01036 c -0.0026,0.607385 -0.507456,1.076093 -1.159336,1.076032 h -1.529776 c -0.654413,0 -1.159338,-0.470626 -1.159339,-1.080255 v -0.0065 -0.0039 c -0.0054,-0.554455 -0.171667,-1.097268 -0.473413,-1.574743 -0.461021,-0.746691 -1.219849,-1.294488 -2.11297,-1.517125 -0.895687,-0.223288 -1.851459,-0.105347 -2.6525278,0.330254 l 0.018294,-0.0084 c -0.2695099,0.140798 -0.5877547,0.176734 -0.8849091,0.09804 v -0.002 c -0.2971919,-0.07888 -0.5476998,-0.2619 -0.697467,-0.51372 l -0.00463,-0.01036 -0.7751923,-1.24211 v -0.002 c -0.3219584,-0.522528 -0.1390093,-1.157898 0.4207939,-1.459647 1.0808938,-0.582058 1.7492978,-1.662062 1.7492978,-2.825284 0,-1.162245 -0.667821,-2.240731 -1.747011,-2.823157 C 6.35067,12.872086 6.1667818,12.231208 6.490712,11.70498 c 4.132e-4,-6.74e-4 -4.155e-4,-0.0013 0,-0.002 l 0.8071918,-1.235796 0.00693,-0.01036 C 7.6309834,9.9293845 8.3205947,9.7557075 8.8872824,10.058272 l -0.016006,-0.0084 c 0.5148125,0.284708 1.1021276,0.439654 1.7012746,0.445313 h 0.0039 0.0065 c 1.900917,1.84e-4 3.473609,-1.4462425 3.500879,-3.2173293 v -0.00855 -0.010636 c -0.0011,-0.2852525 0.11816,-0.5586564 0.334031,-0.7607594 0.215799,-0.2020586 0.5081,-0.3153465 0.814054,-0.3153413 z"
       id="path1715"
       style="fill:#e1e1e1;fill-opacity:1" />
  </g>
  <g
     id="22-22-configure"
     transform="translate(-22,9.9999997)">
    <path
       id="path9"
       d="M 0,0 V 22 H 22 V 0 Z"
       fill="none" />
    <path
       d="m 13.700203,10.888076 c 0,1.554225 -1.258381,2.812841 -2.812349,2.812841 -1.552653,0 -2.812355,-1.258616 -2.812355,-2.812841 0,-1.552985 1.259702,-2.8127656 2.812355,-2.8127656 1.553968,0 2.812349,1.2597806 2.812349,2.8127656 z"
       id="path72-3-75-6"
       style="color:#e5e9ef;fill:#af905e;fill-opacity:1;stroke-width:0.0334841" />
    <path
       d="M 10.424486,2.0001009 C 9.728446,2.0000886 9.061591,2.2594744 8.570564,2.7192833 8.079536,3.1790379 7.8040476,3.8030907 7.8073837,4.4517181 V 4.435775 C 7.8009659,4.8867988 7.4247277,5.2313213 6.9413048,5.2332691 6.8035672,5.2306857 6.669136,5.1967289 6.5502842,5.1309861 l -0.00641,-0.00326 -0.00488,-0.00326 C 5.2910424,4.4584769 3.6749737,4.8651527 2.9573364,6.0258384 l -0.6053985,0.926951 -0.00513,0.00796 C 1.6299891,8.1200372 2.0609893,9.625041 3.3020396,10.297778 h 0.00176 v 0.0015 c 0.2702604,0.145387 0.4356127,0.410695 0.4356127,0.70161 0,0.290774 -0.1653562,0.556218 -0.4356127,0.701597 -1.2413797,0.669217 -1.6737082,2.173048 -0.9569722,3.330626 l 0.00176,0.0017 0.5676685,0.91416 c 0.3384909,0.569201 0.9077825,0.988829 1.5795212,1.16668 0.6717359,0.177969 1.392287,0.09926 2.001411,-0.218961 l 0.00641,-0.0033 0.0062,-0.0033 c 0.1967007,-0.10693 0.4297837,-0.136384 0.649987,-0.0815 0.220083,0.05492 0.4065001,0.189629 0.5196467,0.373971 l 0.00288,0.0049 0.00288,0.0065 c 0.071478,0.112151 0.1100204,0.238713 0.1114753,0.369185 v -0.01001 c 7.2e-6,1.341767 1.1858189,2.446863 2.6256789,2.446863 h 1.145711 c 1.435178,2.3e-4 2.620569,-1.098223 2.627391,-2.435533 v -0.0033 -0.0049 c -0.0012,-0.214863 0.08934,-0.418856 0.2521,-0.57056 0.16139,-0.150387 0.37883,-0.23295 0.607117,-0.233326 0.144078,0.0058 0.28454,0.04192 0.40989,0.108679 l -0.002,-0.0017 c 1.243228,0.667482 2.856651,0.266328 3.579221,-0.888594 l 0.600247,-0.931736 0.0034,-0.0049 c 0.350475,-0.560642 0.445333,-1.228386 0.265826,-1.855488 h 0.002 c -0.179645,-0.625171 -0.621253,-1.16087 -1.224707,-1.484423 -0.199003,-0.106653 -0.343801,-0.282114 -0.403026,-0.489042 -0.05916,-0.206666 -0.02814,-0.425721 0.08747,-0.610511 l 0.002,-0.0028 0.002,-0.0028 c 0.0738,-0.120119 0.181084,-0.218534 0.31031,-0.287521 l 0.0034,-0.0015 0.0034,-0.0026 C 19.927093,9.62536 20.357169,8.1303925 19.648653,6.9735945 l 0.115156,0.405858 V 7.1521529 L 19.649275,6.9619637 19.079892,6.0430153 C 18.36333,4.8814367 16.747269,4.4747401 15.500041,5.1407087 l -0.0034,0.00198 -0.0047,0.00326 c -0.197226,0.1083105 -0.431518,0.1383311 -0.653294,0.084677 -0.22178,-0.053637 -0.41058,-0.1865404 -0.526527,-0.3707758 l -0.0019,-0.00198 -0.0019,-0.00198 C 14.236025,4.7437866 14.199155,4.6156743 14.197687,4.4851658 l -0.0019,0.031973 C 14.216323,3.8563381 13.949454,3.215513 13.455024,2.7415565 12.960625,2.2676097 12.279567,1.9997186 11.570252,2.0000002 Z m 0,1.6365392 h 1.147338 c 0.235375,-9.15e-5 0.46014,0.088795 0.624267,0.2461211 0.164104,0.1573143 0.25203,0.3689033 0.245248,0.5881328 v 0.015944 0.015938 c 0.0044,0.4178589 0.128106,0.8262858 0.356721,1.1858485 2.79e-4,4.569e-4 -2.92e-4,0.00124 0,0.00178 0.351694,0.556363 0.925777,0.9611972 1.596673,1.1235213 0.672477,0.1626987 1.389086,0.069744 1.987689,-0.2589042 l -0.01036,0.0047 c 0.425113,-0.2269808 0.942246,-0.096717 1.18683,0.2988502 l 0.451137,0.7271696 v 0.00796 l 0.114906,0.1885838 c 0.241293,0.3939614 0.104586,0.8721379 -0.315558,1.1011499 l 0.0066,-0.00292 C 17.417547,9.0932596 17.08824,9.40266 16.859092,9.773904 16.509969,10.33401 16.412376,11.001841 16.59155,11.6278 c 0.179424,0.626918 0.619089,1.162682 1.222799,1.486307 0.199078,0.106736 0.343844,0.280653 0.403031,0.487446 v 0.0017 c 0.05897,0.206038 0.0274,0.424198 -0.08745,0.608907 -2.99e-4,4.75e-4 3e-4,0.0011 0,0.0017 l -0.60025,0.930146 -0.0033,0.0049 c -0.245983,0.393987 -0.761149,0.52322 -1.185086,0.295614 l -0.002,-0.0017 h -0.002 c -0.380393,-0.203144 -0.80782,-0.315381 -1.246361,-0.326372 h -0.01042 -0.01036 c -0.698098,-0.0032 -1.368681,0.254215 -1.862498,0.714384 -0.493605,0.460115 -0.769776,1.085137 -0.766611,1.735627 v -0.01001 c -0.0023,0.455492 -0.380629,0.807066 -0.869548,0.807014 H 10.42324 c -0.490812,0 -0.869511,-0.353006 -0.869511,-0.81028 v -0.0049 -0.0033 C 9.551129,17.131479 9.426362,16.724328 9.200051,16.366182 8.854287,15.806098 8.285163,15.395209 7.6153179,15.228212 6.9435484,15.060729 6.2267155,15.149192 5.6259106,15.475929 l 0.013722,-0.0065 c -0.202134,0.105597 -0.4408182,0.132565 -0.6636857,0.07351 v -0.0017 C 4.7530505,15.482611 4.565168,15.345325 4.4528419,15.156443 l -0.00344,-0.01 -0.5813996,-0.931576 v -0.0016 C 3.6265131,13.822923 3.7637289,13.34634 4.183581,13.120003 c 0.8106753,-0.436584 1.311981,-1.246683 1.311981,-2.11919 0,-0.871777 -0.5008682,-1.680731 -1.3102661,-2.1175941 -0.4223057,-0.2284321 -0.560223,-0.7091403 -0.317273,-1.103857 3.096e-4,-5.051e-4 -3.125e-4,-0.00114 0,-0.00178 L 4.47342,6.8506346 4.47857,6.8426746 C 4.7232121,6.4472204 5.2404234,6.3169462 5.6654418,6.5438987 l -0.012007,-0.00641 C 6.0395479,6.7510428 6.480037,6.8672661 6.9293995,6.871508 h 0.00288 0.00488 C 8.362825,6.8716688 9.542354,5.7867328 9.562805,4.4582762 v -0.00648 -0.00821 C 9.562012,4.2294604 9.651455,4.0243852 9.813398,3.8727937 9.975247,3.7212297 10.194477,3.6362554 10.423942,3.6362589 Z"
       id="path1715-7"
       style="fill:#e1e1e1;fill-opacity:1;stroke-width:0.900072" />
  </g>
  <g
     id="16-16-configure"
     transform="translate(-38,16)">
    <path
       id="path9-7"
       d="M 0,0 V 16 H 16 V 0 Z"
       fill="none"
       style="stroke-width:0.727273" />
    <path
       d="m 9.7996647,7.9255781 c 0,1.036014 -0.838733,1.874986 -1.874485,1.874986 -1.034874,0 -1.87449,-0.838972 -1.87449,-1.874986 0,-1.035194 0.839616,-1.874936 1.87449,-1.874936 1.035752,0 1.874485,0.839742 1.874485,1.874936 z"
       id="path72-3-75-6-3"
       style="color:#e5e9ef;fill:#af905e;fill-opacity:1;stroke-width:0.0223193" />
    <path
       d="m 7.6163377,2.0010271 c -0.463924,-1.1e-5 -0.908397,0.172891 -1.235674,0.479391 -0.327281,0.306463 -0.5109,0.722444 -0.508677,1.154806 v -0.01058 c -0.005,0.300643 -0.255046,0.530296 -0.577258,0.531594 -0.0918,-0.0021 -0.181405,-0.0244 -0.260622,-0.06815 l -0.005,-0.0025 -0.0035,-0.0025 C 4.1938238,3.6391511 3.1166838,3.9102331 2.6383628,4.6839231 l -0.403509,0.61789 -0.0037,0.006 c -0.477774,0.772761 -0.190502,1.775965 0.636686,2.2244 h 0.0016 v 0.0015 c 0.180135,0.09691 0.290345,0.27376 0.290345,0.467678 0,0.193825 -0.110212,0.370766 -0.290345,0.467672 -0.827401,0.446087 -1.115559,1.4485119 -0.637839,2.2201309 l 0.0017,0.0011 0.378364,0.609361 c 0.225609,0.379418 0.605054,0.659134 1.052781,0.777686 0.447723,0.118631 0.9279849,0.06616 1.3339789,-0.145955 l 0.005,-0.0022 0.0048,-0.0022 c 0.131105,-0.07128 0.286458,-0.09091 0.433227,-0.05433 0.146693,0.03662 0.270941,0.126403 0.346356,0.249282 l 0.0021,0.0032 0.0022,0.0043 c 0.04761,0.07476 0.07338,0.159121 0.07428,0.246091 v -0.0066 c 5e-6,0.894396 0.790371,1.631031 1.750064,1.631031 h 0.763642 c 0.956574,1.54e-4 1.7466583,-0.732054 1.7512063,-1.623478 v -0.0022 -0.0032 c -0.0012,-0.143224 0.05948,-0.279202 0.168029,-0.380324 0.10757,-0.100245 0.252496,-0.15528 0.404653,-0.155531 0.09603,0.0039 0.189652,0.02794 0.273199,0.07244 l -0.0018,-0.0011 c 0.828632,0.44493 1.904011,0.177529 2.385619,-0.59232 l 0.400075,-0.621076 0.0026,-0.0034 c 0.2336,-0.373713 0.296824,-0.818819 0.177177,-1.2368319 h 0.0018 c -0.119738,-0.416727 -0.414076,-0.773814 -0.81629,-0.989487 -0.132639,-0.0711 -0.229147,-0.188051 -0.268622,-0.325985 -0.0394,-0.137758 -0.0187,-0.283778 0.05824,-0.406953 l 0.0018,-0.0021 0.0018,-0.0021 c 0.04919,-0.08004 0.120699,-0.14567 0.206829,-0.191658 l 0.0026,-0.0015 0.0026,-0.0021 c 0.821813,-0.447995 1.108469,-1.444514 0.636229,-2.215613 l 0.07675,0.270538 v -0.151512 l -0.07639,-0.126778 -0.379503,-0.612552 c -0.477603,-0.774288 -1.554737,-1.045381 -2.386039,-0.601461 l -0.0026,0.0018 -0.0033,0.0025 c -0.131456,0.07222 -0.287618,0.0922 -0.435435,0.05647 -0.147821,-0.03572 -0.273657,-0.124344 -0.35094,-0.247153 l -0.0017,-0.0018 -0.0017,-0.0018 c -0.04822,-0.07475 -0.07271,-0.160124 -0.07375,-0.247118 l -0.0017,0.02127 c 0.01373,-0.440447 -0.1641873,-0.867606 -0.4937353,-1.183539 -0.329525,-0.315927 -0.783462,-0.494488 -1.256236,-0.494308 z m 0,1.090881 h 0.764722 c 0.156883,-5.9e-5 0.306691,0.05924 0.416087,0.164064 0.109381,0.104861 0.167983,0.245901 0.163462,0.392037 v 0.01059 0.01059 c 0.0032,0.278542 0.08541,0.550789 0.237761,0.790465 1.87e-4,3.07e-4 -1.94e-4,0.0012 0,0.0016 0.23441,0.370858 0.617047,0.640716 1.0642133,0.748916 0.448218,0.108455 0.925852,0.04646 1.324831,-0.172579 l -0.0062,0.0033 c 0.283346,-0.151299 0.628028,-0.06445 0.791044,0.199209 l 0.300692,0.484718 v 0.0061 l 0.07659,0.125704 c 0.16083,0.262609 0.06976,0.58135 -0.210325,0.734009 l 0.0051,-0.0022 c -0.265562,0.141813 -0.485054,0.348051 -0.637785,0.595516 -0.232693,0.373355 -0.29774,0.818519 -0.178318,1.235771 0.11959,0.41789 0.412632,0.775023 0.81502,0.990742 0.132688,0.07118 0.229181,0.187077 0.268626,0.324923 v 0.0013 c 0.03928,0.1373389 0.01829,0.2827619 -0.05825,0.4058839 -1.94e-4,3.15e-4 2.05e-4,7.14e-4 0,0.0012 l -0.400072,0.620018 -0.0025,0.0033 c -0.163953,0.262624 -0.507323,0.348768 -0.789884,0.19705 l -0.0018,-0.0011 h -0.0018 C 11.304014,10.827624 11.019126,10.75281 10.726828,10.745483 h -0.0063 -0.0062 c -0.465294,-0.0021 -0.9122513,0.169455 -1.2413903,0.476194 -0.328996,0.306704 -0.513071,0.723331 -0.510959,1.156935 v -0.0066 c -0.0021,0.303622 -0.2537,0.537974 -0.579572,0.537939 h -0.765211 c -0.327135,0 -0.579546,-0.235307 -0.579546,-0.540116 v -0.0032 -0.0022 c -0.0021,-0.275653 -0.08486,-0.547053 -0.235735,-0.785786 -0.230456,-0.373341 -0.609787,-0.647231 -1.056252,-0.758547 -0.447751,-0.11164 -0.925532,-0.05266 -1.3259779,0.165123 l 0.0089,-0.0043 c -0.134728,0.07039 -0.293816,0.08837 -0.442359,0.049 v -0.0011 c -0.148622,-0.03913 -0.273847,-0.13064 -0.348716,-0.256546 l -0.0026,-0.0065 -0.387513,-0.62097 v -0.0011 c -0.160959,-0.260195 -0.06947,-0.5778749 0.210337,-0.7287489 0.540332,-0.291018 0.87446,-0.831013 0.87446,-1.412612 0,-0.581109 -0.333836,-1.120342 -0.873314,-1.411546 -0.281475,-0.152267 -0.373402,-0.472698 -0.211469,-0.735811 2.04e-4,-3.35e-4 -2.1e-4,-0.0011 0,-0.0017 l 0.403508,-0.617883 0.0038,-0.0061 c 0.163061,-0.263599 0.507792,-0.350438 0.791072,-0.199159 l -0.0075,-0.005 c 0.2573519,0.142357 0.5509459,0.219824 0.8504559,0.222654 h 0.0021 0.0035 c 0.950236,1.07e-4 1.736412,-0.723088 1.750043,-1.608612 v -0.005 -0.006 c -5.3e-4,-0.142734 0.05913,-0.279432 0.167026,-0.380477 0.107878,-0.101031 0.253997,-0.157672 0.406937,-0.157669 z"
       id="path1715-7-6"
       style="fill:#e1e1e1;fill-opacity:1;stroke-width:0.599947" />
  </g>
</svg>
