<?xml version="1.0" encoding="UTF-8" standalone="no"?>
<svg
   width="32"
   height="32"
   version="1.1"
   id="svg12"
   sodipodi:docname="device.svg"
   inkscape:version="1.2.2 (b0a8486541, 2022-12-01)"
   xmlns:inkscape="http://www.inkscape.org/namespaces/inkscape"
   xmlns:sodipodi="http://sodipodi.sourceforge.net/DTD/sodipodi-0.dtd"
   xmlns="http://www.w3.org/2000/svg"
   xmlns:svg="http://www.w3.org/2000/svg"
   xmlns:rdf="http://www.w3.org/1999/02/22-rdf-syntax-ns#"
   xmlns:cc="http://creativecommons.org/ns#"
   xmlns:dc="http://purl.org/dc/elements/1.1/">
  <style
     id="current-color-scheme"
     type="text/css">.ColorScheme-Text { color:#e5e9ef; }
</style>
  <metadata
     id="metadata18">
    <rdf:RDF>
      <cc:Work
         rdf:about="">
        <dc:format>image/svg+xml</dc:format>
        <dc:type
           rdf:resource="http://purl.org/dc/dcmitype/StillImage" />
      </cc:Work>
    </rdf:RDF>
  </metadata>
  <defs
     id="defs16" />
  <sodipodi:namedview
     pagecolor="#333333"
     bordercolor="#000000"
     borderopacity="1"
     objecttolerance="10"
     gridtolerance="10"
     guidetolerance="10"
     inkscape:pageopacity="0"
     inkscape:pageshadow="2"
     inkscape:window-width="1920"
     inkscape:window-height="1000"
     id="namedview14"
     showgrid="true"
     inkscape:zoom="11.313708"
     inkscape:cx="21.389981"
     inkscape:cy="17.456699"
     inkscape:window-x="0"
     inkscape:window-y="0"
     inkscape:window-maximized="1"
     inkscape:current-layer="svg12"
     inkscape:document-rotation="0"
     inkscape:lockguides="true"
     inkscape:showpageshadow="true"
     inkscape:pagecheckerboard="true"
     inkscape:deskcolor="#404040"
     showguides="false"
     shape-rendering="auto">
    <inkscape:grid
       type="xygrid"
       id="grid426"
       originx="0"
       originy="4.6325681e-08" />
  </sodipodi:namedview>
  <g
     id="device-notifier">
    <rect
       style="opacity:0.00100002;fill:#e1e1e1;fill-opacity:1"
       width="32"
       height="32"
       x="0"
       y="-4.6325681e-08"
       id="rect7" />
    <path
       style="fill:#e1e1e1;fill-opacity:1;stroke-width:0.0448698"
       d="M 21.781741,10.000933 H 21.372704 20.145407 18.918168 16 13.191083 11.963839 10.736599 10.32754 c -0.325456,-0.0021 -0.32754,0 -0.32754,0 -0.497531,0 -1,0.423311 -1,0.999957 l 2.45e-4,10.778206 c -0.02841,3.40487 3.068109,6.195262 6.902819,6.220731 1.33e-4,2e-6 2.7e-4,-6.1e-5 3.33e-4,2e-6 1.857159,0.01225 3.608752,-0.618563 4.932122,-1.77602 10e-7,-1.21e-4 1.73e-4,-1.46e-4 1.73e-4,-1.46e-4 C 22.158957,25.066057 22.986125,23.649832 23,22.00042 V 11.00089 c 0,-0.556359 -0.491581,-0.999957 -1,-0.999957 h -0.218277 z"
       id="path4"
       sodipodi:nodetypes="ccccccccccccscccccccc" />
    <path
       style="fill:#af905e;fill-opacity:1;stroke-width:0.0448708"
       d="M 12.012385,4.0000393 12,4 c 0,0 -1,0 -1,1 v 5 h 1 1 3 V 4 Z"
       id="path8"
       sodipodi:nodetypes="ccccccccc" />
    <path
       style="fill:#af905e;fill-opacity:1;stroke-width:0.0448708"
       d="m 20,4 h -3 -1 v 6 h 2 1 2 V 5 C 21,4 20,4 20,4 Z"
       id="path8-56"
       sodipodi:nodetypes="ccccccccc" />
    <path
       d="M 18,23.999991 C 18,25.105108 17.105115,26 16.000003,26 c -1.104168,1e-6 -1.999996,-0.894892 -1.999996,-2.000009 C 14.000007,22.895828 14.895835,22 16.000003,22 17.105115,22 18,22.895828 18,23.999991 Z"
       id="path72-3-5"
       style="color:#e5e9ef;fill:#af905e;fill-opacity:1;stroke-width:0.0238092"
       class="ColorScheme-Text" />
    <path
       d="m 15,19 v -7 h 1 1 v 7 l -1,5e-6 C 16,19 15,19 15,19 Z"
       id="path38"
       style="color:#d1d5e9;fill:#af905e;fill-opacity:1;stroke-width:0.375444"
       class="ColorScheme-Text"
       sodipodi:nodetypes="ccccccc" />
  </g>
  <g
     id="22-22-device-notifier"
     transform="translate(32,9.999999)">
    <rect
       style="opacity:0.00100002;fill:#e1e1e1;fill-opacity:1"
       width="22"
       height="22"
       x="0"
       y="4.6325681e-08"
       id="rect2" />
    <path
       style="fill:#e1e1e1;fill-opacity:1;stroke-width:0.0309632"
       d="M 15.129814,7.000623 H 14.837643 13.961005 13.084405 11 8.993629 8.117026 7.240426 6.948241 c -0.232465,-0.0014 -0.233954,0 -0.233954,0 C 6.358906,7.000623 6,7.282831 6,7.667259 l 1.76e-4,7.185477 c -0.02027,2.269912 2.191506,4.13017 4.930586,4.147152 9.6e-5,1e-6 1.94e-4,-4e-5 2.36e-4,1e-6 1.326539,0.008 2.577681,-0.412373 3.522941,-1.184015 0,-7.5e-5 1.29e-4,-9.7e-5 1.29e-4,-9.7e-5 C 15.399257,17.044045 15.99009,16.099894 16,15.000278 V 7.667259 C 16,7.296352 15.648873,7.000623 15.285713,7.000623 h -0.155911 z"
       id="path4-2"
       sodipodi:nodetypes="ccccccccccccscccccccc" />
    <path
       style="fill:#af905e;fill-opacity:1;stroke-width:0.0309639"
       d="m 9,3.000001 v 0 c 0,0 -1,0 -1,1 v 3 l 0.142703,-3e-6 h 0.714285 2.142856 V 3.000001 Z"
       id="path8-9"
       sodipodi:nodetypes="ccccccccc" />
    <path
       style="fill:#af905e;fill-opacity:1;stroke-width:0.0309639"
       d="M 13,3.000001 11.714286,3 H 11 v 3.999998 h 1.428574 0.714287 L 14,7.000001 v -3 c 0,-1 -1,-1 -1,-1 z"
       id="path8-56-1"
       sodipodi:nodetypes="ccccccccc" />
    <path
       d="m 12.5,16.499989 c 0,0.828845 -0.671164,1.500012 -1.5,1.500012 -0.828126,0 -1.5,-0.671167 -1.5,-1.500012 0,-0.82812 0.671874,-1.499988 1.5,-1.499988 0.828836,0 1.5,0.671868 1.5,1.499988 z"
       id="path72-3-5-2"
       style="color:#e5e9ef;fill:#af905e;fill-opacity:1;stroke-width:0.0178572"
       class="ColorScheme-Text" />
    <path
       d="M 10,12.999999 V 9.000001 h 1 1 v 3.999998 l -1,2e-6 c 0,-2e-6 -1,-2e-6 -1,-2e-6 z"
       id="path38-3"
       style="color:#d1d5e9;fill:#af905e;fill-opacity:1;stroke-width:0.283809"
       class="ColorScheme-Text"
       sodipodi:nodetypes="ccccccc" />
  </g>
</svg>
