<?xml version="1.0" encoding="UTF-8" standalone="no"?>
<svg
   width="32"
   height="32"
   version="1.1"
   id="svg2222"
   sodipodi:docname="emblem.svg"
   inkscape:version="1.2.2 (b0a8486541, 2022-12-01)"
   xmlns:inkscape="http://www.inkscape.org/namespaces/inkscape"
   xmlns:sodipodi="http://sodipodi.sourceforge.net/DTD/sodipodi-0.dtd"
   xmlns="http://www.w3.org/2000/svg"
   xmlns:svg="http://www.w3.org/2000/svg">
  <style
     id="current-color-scheme"
     type="text/css">.ColorScheme-Text { color:#d6dbf1; }
</style>
  <defs
     id="defs2226" />
  <sodipodi:namedview
     id="namedview2224"
     pagecolor="#333333"
     bordercolor="#000000"
     borderopacity="1"
     inkscape:showpageshadow="true"
     inkscape:pageopacity="0"
     inkscape:pagecheckerboard="true"
     inkscape:deskcolor="#404040"
     showgrid="true"
     inkscape:zoom="14.75"
     inkscape:cx="31.59322"
     inkscape:cy="21.254237"
     inkscape:window-width="1920"
     inkscape:window-height="1000"
     inkscape:window-x="0"
     inkscape:window-y="0"
     inkscape:window-maximized="1"
     inkscape:current-layer="svg2222">
    <inkscape:grid
       type="xygrid"
       id="grid2709" />
  </sodipodi:namedview>
  <path
     d="m 89,15 c 0,1.105112 -0.894898,2.000009 -1.999997,2.000009 -1.104168,1e-6 -1.999996,-0.894897 -1.999996,-2.000009 0,-1.104169 0.895828,-1.999991 1.999996,-1.999991 C 88.105102,13.000009 89,13.895831 89,15 Z"
     id="path72-3-3"
     style="color:#e5e9ef;fill:#af905e;fill-opacity:1;stroke-width:0.0238098"
     class="ColorScheme-Text" />
  <g
     id="emblem-shared-symbolic">
    <rect
       style="opacity:0.00100002;fill:#e1e1e1;fill-opacity:1"
       width="32"
       height="32"
       x="0"
       y="0"
       id="rect2217" />
    <path
       style="fill:#e1e1e1;fill-opacity:1"
       d="m 22.5,4 a 4.5,4.5 0 0 0 -4.5,4.5 4.5,4.5 0 0 0 0.390625,1.818359 l -4.283203,2.498047 A 4.5,4.5 0 0 0 10.5,11 4.5,4.5 0 0 0 6,15.5 4.5,4.5 0 0 0 10.5,20 4.5,4.5 0 0 0 14.107422,18.181641 l 4.28125,2.498047 A 4.5,4.5 0 0 0 18,22.5 4.5,4.5 0 0 0 22.5,27 4.5,4.5 0 0 0 27,22.5 4.5,4.5 0 0 0 22.5,18 4.5,4.5 0 0 0 18.892578,19.818359 l -4.28125,-2.498047 A 4.5,4.5 0 0 0 15,15.5 4.5,4.5 0 0 0 14.609375,13.681641 l 4.283203,-2.498047 A 4.5,4.5 0 0 0 22.5,13 4.5,4.5 0 0 0 27,8.5 4.5,4.5 0 0 0 22.5,4 Z"
       id="path2219"
       class="ColorScheme-Text" />
    <path
       d="M 24.499993,8.4999909 C 24.499993,9.6051028 23.605095,10.5 22.499996,10.5 21.395828,10.500001 20.5,9.6051028 20.5,8.4999909 20.5,7.3958219 21.395828,6.5 22.499996,6.5 c 1.105099,0 1.999997,0.8958219 1.999997,1.9999909 z"
       id="path72-3"
       style="color:#e5e9ef;fill:#af905e;fill-opacity:1;stroke-width:0.0238098"
       class="ColorScheme-Text" />
    <path
       d="M 24.499993,22.499991 C 24.499993,23.605103 23.605095,24.5 22.499996,24.5 21.395828,24.500001 20.5,23.605103 20.5,22.499991 20.5,21.395822 21.395828,20.5 22.499996,20.5 c 1.105099,0 1.999997,0.895822 1.999997,1.999991 z"
       id="path72-3-6-7"
       style="color:#e5e9ef;fill:#af905e;fill-opacity:1;stroke-width:0.0238098"
       class="ColorScheme-Text" />
    <path
       d="M 12.499993,15.499991 C 12.499993,16.605103 11.605095,17.5 10.499996,17.5 9.395828,17.500001 8.5,16.605103 8.5,15.499991 8.5,14.395822 9.395828,13.5 10.499996,13.5 c 1.105099,0 1.999997,0.895822 1.999997,1.999991 z"
       id="path72-3-6-7-5"
       style="color:#e5e9ef;fill:#af905e;fill-opacity:1;stroke-width:0.0238098"
       class="ColorScheme-Text" />
  </g>
  <g
     id="22-22-emblem-shared-symbolic">
    <rect
       style="opacity:0.00100002;fill:#e1e1e1;fill-opacity:1"
       width="22"
       height="22"
       x="32"
       y="10.000001"
       id="rect2212" />
    <path
       style="fill:#e1e1e1;fill-opacity:1"
       d="m 47.000001,13.000001 a 3,3 0 0 0 -3,3 3,3 0 0 0 0.228516,1.142578 l -2.988282,1.867188 a 3,3 0 0 0 -2.240234,-1.009766 3,3 0 0 0 -3,3 3,3 0 0 0 3,3 3,3 0 0 0 2.242187,-1.009766 l 2.984375,1.867188 a 3,3 0 0 0 -0.226562,1.142578 3,3 0 0 0 3,3 3,3 0 0 0 3,-3 3,3 0 0 0 -3,-3 3,3 0 0 0 -2.242188,1.009766 l -2.984375,-1.867188 a 3,3 0 0 0 0.226563,-1.142578 3,3 0 0 0 -0.228516,-1.142578 l 2.988282,-1.867188 a 3,3 0 0 0 2.240234,1.009766 3,3 0 0 0 3,-3 3,3 0 0 0 -3,-3 z"
       id="path2214"
       class="ColorScheme-Text" />
    <path
       d="M 48.999997,25.999991 C 48.999997,27.105103 48.105099,28 47,28 c -1.104168,1e-6 -1.999996,-0.894897 -1.999996,-2.000009 C 45.000004,24.895822 45.895832,24 47,24 c 1.105099,0 1.999997,0.895822 1.999997,1.999991 z"
       id="path72-3-6"
       style="color:#e5e9ef;fill:#af905e;fill-opacity:1;stroke-width:0.0238098"
       class="ColorScheme-Text" />
    <path
       d="M 40.999997,20.999991 C 40.999997,22.105103 40.105099,23 39,23 c -1.104168,1e-6 -1.999996,-0.894897 -1.999996,-2.000009 C 37.000004,19.895822 37.895832,19 39,19 c 1.105099,0 1.999997,0.895822 1.999997,1.999991 z"
       id="path72-3-6-3"
       style="color:#e5e9ef;fill:#af905e;fill-opacity:1;stroke-width:0.0238098"
       class="ColorScheme-Text" />
    <path
       d="M 48.999997,15.999991 C 48.999997,17.105103 48.105099,18 47,18 c -1.104168,1e-6 -1.999996,-0.894897 -1.999996,-2.000009 C 45.000004,14.895822 45.895832,14 47,14 c 1.105099,0 1.999997,0.895822 1.999997,1.999991 z"
       id="path72-3-6-5"
       style="color:#e5e9ef;fill:#af905e;fill-opacity:1;stroke-width:0.0238098"
       class="ColorScheme-Text" />
  </g>
</svg>
