<?xml version="1.0" encoding="UTF-8" standalone="no"?>
<svg
   width="32"
   height="32"
   version="1"
   id="svg12"
   sodipodi:docname="klipper.svg"
   inkscape:version="1.2.2 (b0a8486541, 2022-12-01)"
   xmlns:inkscape="http://www.inkscape.org/namespaces/inkscape"
   xmlns:sodipodi="http://sodipodi.sourceforge.net/DTD/sodipodi-0.dtd"
   xmlns="http://www.w3.org/2000/svg"
   xmlns:svg="http://www.w3.org/2000/svg"
   xmlns:rdf="http://www.w3.org/1999/02/22-rdf-syntax-ns#"
   xmlns:cc="http://creativecommons.org/ns#"
   xmlns:dc="http://purl.org/dc/elements/1.1/">
  <g
     id="22-22-klipper"
     transform="translate(32,10)">
    <rect
       style="opacity:0.00100002;fill:#bac8df;fill-opacity:1"
       width="22"
       height="22"
       x="0"
       y="0"
       id="rect2" />
    <path
       style="color:#d1d5e9;fill:#e1e1e1;fill-opacity:1;stroke-width:1"
       class="ColorScheme-Text "
       d="m 11,3 c -4.424,0 -8,3.576 -8,8 0,4.424 3.576,8 8,8 4.423999,0 8,-3.576 8,-8 0,-4.424 -3.576001,-8 -8,-8 z m 0,1 c 3.869999,0 7,3.130001 7,7 0,3.870008 -3.129999,7 -7,7 C 7.130004,18 4,14.870008 4,11 4,7.130001 7.130004,4 11,4 Z m 0.668614,5.75339 z"
       id="path58-3"
       sodipodi:nodetypes="ssssssssssccccccc" />
    <path
       d="M 15.657244,9.205389 C 15.595944,8.495801 15.274179,7.801312 14.722572,7.257706 13.573364,6.12538 11.811269,6.019705 10.799968,7.016138 l -4.30575,4.242531 c -0.21451,0.211372 -0.21451,0.543515 0,0.739789 0.214518,0.211364 0.551623,0.211364 0.750818,0 l 4.305746,-4.242533 c 0.597579,-0.588804 1.670161,-0.483118 2.405738,0.241569 0.367743,0.362339 0.582266,0.815267 0.62823,1.283294 0.03068,0.437838 -0.09193,0.830373 -0.367741,1.102132 l -1.654848,1.630548 -2.390336,2.340053 C 9.78876,14.730959 9.129889,14.685666 8.70086,14.262941 8.271818,13.840204 8.225852,13.191003 8.60892,12.813563 l 3.754139,-3.699012 c 0.09192,-0.09058 0.275796,-0.09058 0.383064,0.03018 0.107253,0.105688 0.122578,0.286854 0.03068,0.37744 l -3.064524,3.049726 c -0.214521,0.211365 -0.214521,0.543517 0,0.739789 0.107259,0.105681 0.245158,0.150971 0.383063,0.150971 0.137906,0 0.275811,-0.0453 0.383066,-0.150971 l 3.079943,-3.034713 C 14.079317,9.763647 14.063992,8.918177 13.527691,8.404859 12.991404,7.876441 12.133334,7.861344 11.627681,8.374719 l -1.379036,1.358789 -2.39033,2.340041 c -0.796774,0.785084 -0.750814,2.098491 0.09192,2.943959 0.444364,0.437833 1.011292,0.649199 1.578229,0.649199 0.520974,0 1.026626,-0.181169 1.409687,-0.55861 l 4.029769,-3.970594 c 0.505648,-0.498224 0.750811,-1.17762 0.689518,-1.932504 z"
       id="path628-6"
       style="fill:#af905e;fill-opacity:1;stroke-width:0.0173828" />
  </g>
  <style
     id="current-color-scheme"
     type="text/css">
.ColorScheme-Text { 
    color:#e5e9ef;
}
</style>
  <metadata
     id="metadata18">
    <rdf:RDF>
      <cc:Work
         rdf:about="">
        <dc:format>image/svg+xml</dc:format>
        <dc:type
           rdf:resource="http://purl.org/dc/dcmitype/StillImage" />
      </cc:Work>
    </rdf:RDF>
  </metadata>
  <defs
     id="defs16" />
  <sodipodi:namedview
     pagecolor="#333333"
     bordercolor="#000000"
     borderopacity="1"
     objecttolerance="10"
     gridtolerance="10"
     guidetolerance="10"
     inkscape:pageopacity="0"
     inkscape:pageshadow="2"
     inkscape:window-width="1920"
     inkscape:window-height="1000"
     id="namedview14"
     showgrid="true"
     inkscape:zoom="5.6568545"
     inkscape:cx="5.7452423"
     inkscape:cy="28.8146"
     inkscape:window-x="0"
     inkscape:window-y="0"
     inkscape:window-maximized="1"
     inkscape:current-layer="svg12"
     inkscape:document-rotation="0"
     inkscape:pagecheckerboard="true"
     inkscape:lockguides="false"
     showguides="false"
     inkscape:showpageshadow="true"
     inkscape:deskcolor="#3f3f3f">
    <sodipodi:guide
       position="2.209709,19.55934"
       orientation="1,0"
       id="guide8806"
       inkscape:locked="false" />
    <inkscape:grid
       type="xygrid"
       id="grid10087"
       originx="0"
       originy="2.7755576e-17" />
  </sodipodi:namedview>
  <g
     id="klipper">
    <rect
       style="opacity:0.00100002;fill:#bac8df;fill-opacity:1"
       width="32"
       height="32"
       x="0"
       y="0"
       id="rect7" />
    <path
       style="color:#d1d5e9;fill:#e1e1e1;fill-opacity:1;stroke-width:1.5"
       class="ColorScheme-Text "
       d="M 16,4 C 9.364,4 4,9.364 4,16 4,22.636 9.364,28 16,28 22.635999,28 28,22.636 28,16 28,9.364 22.635999,4 16,4 Z m 0,1.5 c 5.805006,0 10.5,4.695 10.5,10.5 0,5.805014 -4.694994,10.5 -10.5,10.5 C 10.195014,26.5 5.5,21.805014 5.5,16 5.5,10.195 10.195014,5.5 16,5.5 Z m 1.002928,8.630086 z"
       id="path58"
       sodipodi:nodetypes="ssssssssssccccccc" />
    <path
       d="M 10.350893,22.637637 C 9.4760391,21.719886 8.9917591,20.49822 9.0001061,19.230376 9.0081061,17.96241 9.5087721,16.74732 10.3956,15.841128 L 16.947693,9.133793 C 17.606387,8.453783 18.51264,8.07 19.459373,8.07 c 0.9466,0 1.852879,0.383752 2.511547,1.063793 0.659626,0.679082 1.0286,1.588515 1.0286,2.535271 0,0.946754 -0.368974,1.856158 -1.0286,2.535269 l -5.709,5.837804 c -0.444733,0.459056 -1.058267,0.715561 -1.697347,0.709587 -0.639093,-0.006 -1.247826,-0.273864 -1.68388,-0.741143 -0.422813,-0.456473 -0.653733,-1.058149 -0.644946,-1.680361 0.0093,-0.622214 0.256626,-1.217074 0.69224,-1.661476 L 17.41796,12.08179 c 0.0936,-0.09383 0.220733,-0.146608 0.353387,-0.146608 0.132533,0 0.25968,0.05277 0.3534,0.146608 l 0.714626,0.698776 h -1.2e-4 c 0.094,0.09371 0.146614,0.220851 0.146614,0.353398 0,0.132546 -0.05267,0.25967 -0.146614,0.353397 L 14.3574,18.066508 c -0.154947,0.156341 -0.164093,0.40546 -0.02093,0.572701 0.0632,0.06873 0.15224,0.107907 0.2456,0.107907 0.09333,0 0.182493,-0.03917 0.245706,-0.107907 l 5.7114,-5.835103 c 0.29544,-0.304485 0.460827,-0.712048 0.460827,-1.136274 0,-0.424226 -0.165374,-0.831788 -0.460827,-1.136275 -0.281947,-0.294505 -0.672053,-0.461037 -1.079733,-0.461037 -0.4078,0 -0.797773,0.166548 -1.079853,0.461037 l -6.568027,6.704633 c -0.52064,0.53646 -0.813133,1.253794 -0.81608,2.001362 -0.0027,0.747568 0.283947,1.467122 0.800347,2.007696 0.50232,0.523339 1.196453,0.819118 1.921853,0.819118 0.725413,0 1.419387,-0.295797 1.921733,-0.819118 l 5.370013,-5.491014 c 0.0936,-0.09383 0.220734,-0.146606 0.3534,-0.146606 0.132534,0 0.259667,0.05277 0.35328,0.146606 l 0.714627,0.698778 c 0.09387,0.09371 0.146613,0.22085 0.146613,0.353397 0,0.132653 -0.0528,0.259787 -0.146613,0.353397 l -5.367306,5.491012 c -0.880707,0.909315 -2.093214,1.421635 -3.359227,1.419172 -1.266013,-0.0024 -2.476387,-0.519465 -3.35352,-1.432293 z"
       id="path52"
       style="fill:#af905e;fill-opacity:1;stroke-width:0.0300252" />
  </g>
</svg>
