<?xml version="1.0" encoding="UTF-8" standalone="no"?>
<svg
   id="svg50"
   width="32"
   height="32"
   version="1.1"
   sodipodi:docname="microphone.svg"
   inkscape:version="1.2.2 (b0a8486541, 2022-12-01)"
   xmlns:inkscape="http://www.inkscape.org/namespaces/inkscape"
   xmlns:sodipodi="http://sodipodi.sourceforge.net/DTD/sodipodi-0.dtd"
   xmlns="http://www.w3.org/2000/svg"
   xmlns:svg="http://www.w3.org/2000/svg"
   xmlns:rdf="http://www.w3.org/1999/02/22-rdf-syntax-ns#"
   xmlns:cc="http://creativecommons.org/ns#"
   xmlns:dc="http://purl.org/dc/elements/1.1/">
  <g
     id="22-22-microphone-sensitivity-muted"
     transform="translate(96.000004,-22)">
    <path
       style="opacity:0.00100002;fill:#e5e9ef;fill-opacity:1"
       d="M 0,0 H 21.999997 V 22 H 0 Z"
       id="path26" />
    <path
       fill="currentColor"
       class="ColorScheme-Text"
       d="m 4.5,9.133339 v 1.866659 c 0,2.419002 1.5264,4.437167 3.9,4.900388 v 1.766278 H 6.58 c -0.78,0 -0.78,1.333335 0,1.333335 h 6.24 c 0.78,0 0.78,-1.333335 0,-1.333335 h -1.82001 v -1.766277 c 2.37361,-0.463223 3.9,-2.481387 3.9,-4.900388 v -1.86666 c 0,-0.8 -1.29999,-0.8 -1.29999,0 V 11 c 0,2.209139 -1.6025,3.800002 -3.89999,3.800002 C 7.4025,14.800002 5.8,13.20914 5.8,11 V 9.133338 c 0,-0.8 -1.299997,-0.8 -1.3,10e-7 z M 9.70001,3 C 7.97687,3 6.58,4.343144 6.58,5.999999 v 4.999997 c 0,1.656852 1.39687,2.999999 3.12001,2.999999 1.72312,0 3.11999,-1.343147 3.11999,-2.999999 V 5.999999 C 12.82,4.343144 11.42313,3 9.70001,3 Z"
       id="path661-6-2-2"
       style="color:#bac8df;fill:#e1e1e1;fill-opacity:1;stroke-width:1.01981"
       sodipodi:nodetypes="csccccccccsccsssccsssssss" />
    <path
       d="m 19.818186,3.9090713 c 0,1.0549074 -0.854238,1.90911 -1.909128,1.90911 -1.053967,0 -1.909059,-0.8542026 -1.909059,-1.90911 C 15.999999,2.85512 16.855091,2 17.909058,2 c 1.05489,0 1.909128,0.85512 1.909128,1.9090713 z"
       id="path72-3-2-7-7"
       style="color:#e5e9ef;fill:#da4453;fill-opacity:1;stroke-width:0.0227277"
       class="ColorScheme-Text" />
    <path
       d="m 19.818185,8.9999875 c 0,1.0549015 -0.854235,1.9090985 -1.909125,1.9090985 -1.053969,0 -1.909061,-0.854197 -1.909061,-1.9090985 0,-1.053954 0.855092,-1.9090792 1.909061,-1.9090792 1.05489,0 1.909125,0.8551252 1.909125,1.9090792 z"
       id="path72-3-3-9-0-0"
       style="color:#e5e9ef;fill:#da4453;fill-opacity:1;stroke-width:0.0227277"
       class="ColorScheme-Text" />
    <path
       d="m 19.689174,15.247954 -1.157102,-1.15715 1.156752,-1.156891 c 0.171996,-0.172117 0.171996,-0.451033 0,-0.623086 -0.1722,-0.171937 -0.451096,-0.171937 -0.62293,0 l -1.156898,1.156967 -1.156918,-1.156967 c -0.17203,-0.171937 -0.45093,-0.17211 -0.623055,6.6e-5 -0.172017,0.171986 -0.172017,0.450964 7.5e-5,0.623017 l 1.15692,1.156894 -1.157037,1.15715 c -0.171975,0.171999 -0.171975,0.451023 0,0.622986 0.0867,0.08588 0.198747,0.12906 0.311562,0.12906 0.1134,0 0.22554,-0.04316 0.311535,-0.12906 l 1.157014,-1.157136 1.157189,1.157136 C 19.152265,15.956854 19.265028,16 19.377771,16 c 0.112378,0 0.225436,-0.04316 0.311386,-0.12906 0.17202,-0.171923 0.17202,-0.450965 0,-0.622986 z"
       id="path3490-3-36-3"
       style="fill:#da4453;fill-opacity:1;stroke-width:0.00904826;enable-background:new" />
  </g>
  <g
     id="microphone-sensitivity-medium"
     transform="translate(32.000002)"
     style="fill:#e1e1e1;fill-opacity:1">
    <path
       style="opacity:0.00100002;fill:#e1e1e1;fill-opacity:1"
       d="M 0,0 H 32.000001 V 32.000001 H 0 Z"
       id="path31" />
    <path
       d="m 6,13.200001 v 2.799996 c 0,3.628511 2.348314,6.655749 6,7.350574 l 4e-6,2.649428 H 9.2 c -1.199996,0 -1.199996,2 0,2 h 9.6 c 1.2,0 1.2,-2 0,-2 H 16 v -2.649428 c 3.65169,-0.694825 6,-3.722065 6,-7.350574 v -2.799996 c 0,-1.2 -2,-1.2 -2,0 V 16 c 0,3.313698 -2.46538,5.7 -5.999997,5.7 -3.534618,0 -5.999999,-2.386302 -5.999999,-5.7 v -2.8 c 0,-1.2 -2,-1.2 -2.000004,1e-6 z M 14.000003,4 C 11.349031,4 9.200004,6.014722 9.200004,8.499999 v 7.499996 c 0,2.485274 2.149027,4.499999 4.799999,4.499999 2.650967,0 4.799997,-2.014725 4.799997,-4.499998 V 8.499999 C 18.8,6.014722 16.65097,4 14.000003,4 Z"
       id="path661-6"
       sodipodi:nodetypes="csccccccccsccsssccsssssss"
       style="fill:#e1e1e1;fill-opacity:1" />
    <path
       d="m 28.142813,6.5714113 c 0,1.4208607 -1.15056,2.5714456 -2.571434,2.5714456 C 24.151761,9.1428569 23,7.992272 23,6.5714113 23,5.151768 24.151761,4 25.571379,4 c 1.420874,0 2.571434,1.151768 2.571434,2.5714113 z"
       id="path72-3-2"
       style="color:#e5e9ef;fill:#af905e;fill-opacity:0.5;stroke-width:0.0306125"
       class="ColorScheme-Text" />
    <path
       d="m 28.142813,12.999987 c 0,1.420869 -1.15056,2.571444 -2.571434,2.571444 C 24.151761,15.571431 23,14.420856 23,12.999987 c 0,-1.419647 1.151761,-2.571418 2.571379,-2.571418 1.420874,0 2.571434,1.151771 2.571434,2.571418 z"
       id="path72-3-3-9"
       style="color:#e5e9ef;fill:#af905e;fill-opacity:1;stroke-width:0.0306125"
       class="ColorScheme-Text" />
    <path
       d="M 28.142837,19.42855 C 28.142837,20.849416 26.992255,22 25.571419,22 24.151785,22 23,20.849416 23,19.42855 c 0,-1.419651 1.151785,-2.571399 2.571419,-2.571399 1.420836,0 2.571418,1.151748 2.571418,2.571399 z"
       id="path72-3-3-6-1"
       style="color:#e5e9ef;fill:#af905e;fill-opacity:1;stroke-width:0.0306127"
       class="ColorScheme-Text" />
  </g>
  <style
     id="current-color-scheme"
     type="text/css" />
  <metadata
     id="metadata67">
    <rdf:RDF>
      <cc:Work
         rdf:about="">
        <dc:format>image/svg+xml</dc:format>
        <dc:type
           rdf:resource="http://purl.org/dc/dcmitype/StillImage" />
      </cc:Work>
    </rdf:RDF>
  </metadata>
  <defs
     id="defs65" />
  <sodipodi:namedview
     pagecolor="#333333"
     bordercolor="#000000"
     borderopacity="1"
     objecttolerance="10"
     gridtolerance="10"
     guidetolerance="10"
     inkscape:pageopacity="0"
     inkscape:pageshadow="2"
     inkscape:window-width="1920"
     inkscape:window-height="1002"
     id="namedview63"
     showgrid="true"
     inkscape:zoom="6.7967111"
     inkscape:cx="55.100179"
     inkscape:cy="16.846383"
     inkscape:window-x="0"
     inkscape:window-y="0"
     inkscape:window-maximized="1"
     inkscape:current-layer="svg50"
     inkscape:document-rotation="0"
     inkscape:lockguides="true"
     inkscape:showpageshadow="true"
     inkscape:pagecheckerboard="true"
     inkscape:deskcolor="#414141">
    <inkscape:grid
       type="xygrid"
       id="grid5308"
       originx="96.000004"
       originy="0" />
  </sodipodi:namedview>
  <g
     id="microphone-sensitivity-high"
     style="fill:#e1e1e1;fill-opacity:1">
    <path
       style="opacity:0.00100002;fill:#e1e1e1;fill-opacity:1"
       d="M 0,0 H 32.000001 V 32.000001 H 0 Z"
       id="path2" />
    <path
       d="m 6,13.2 v 2.799996 c 0,3.628511 2.348314,6.65575 6,7.350574 L 12.000004,26 H 9.2 c -1.199996,0 -1.199996,2 0,2 h 9.6 c 1.200004,0 1.200004,-2 0,-2 H 16.000004 L 16,23.35057 c 3.651685,-0.694824 6,-3.722063 6,-7.350574 V 13.2 c 4e-6,-1.2 -1.999996,-1.2 -1.999996,0 V 16 c 0,3.313698 -2.465383,5.7 -6.000001,5.7 -3.534618,0 -5.999999,-2.386302 -5.999999,-5.7 v -2.8 c 0,-1.2 -2,-1.2 -2.000004,0 z M 14.000003,4 C 11.349031,4 9.200004,6.0147223 9.200004,8.4999985 v 7.4999975 c 0,2.485274 2.149027,4.499998 4.799999,4.499998 2.65097,0 4.799998,-2.014724 4.799998,-4.499998 V 8.4999985 C 18.800001,6.0147223 16.650973,4 14.000003,4 Z"
       id="path661"
       sodipodi:nodetypes="csccccccccsccsssccsssssss"
       style="fill:#e1e1e1;fill-opacity:1" />
    <path
       d="m 28.142837,6.5714114 c 0,1.4208606 -1.15058,2.5714456 -2.57142,2.5714456 C 24.151783,9.142857 23,7.992272 23,6.5714114 23,5.151768 24.151783,4 25.571417,4 c 1.42084,0 2.57142,1.151768 2.57142,2.5714114 z"
       id="path72-3"
       style="color:#e5e9ef;fill:#af905e;fill-opacity:1;stroke-width:0.0306124"
       class="ColorScheme-Text" />
    <path
       d="m 28.142837,12.999987 c 0,1.420868 -1.15058,2.571443 -2.57142,2.571443 C 24.151783,15.57143 23,14.420855 23,12.999987 c 0,-1.419647 1.151783,-2.571417 2.571417,-2.571417 1.42084,0 2.57142,1.15177 2.57142,2.571417 z"
       id="path72-3-3"
       style="color:#e5e9ef;fill:#af905e;fill-opacity:1;stroke-width:0.0306124"
       class="ColorScheme-Text" />
    <path
       d="M 28.142836,19.428553 C 28.142836,20.849416 26.992258,22 25.571416,22 24.151782,22 23,20.849416 23,19.428553 c 0,-1.419639 1.151782,-2.571403 2.571416,-2.571403 1.420842,0 2.57142,1.151764 2.57142,2.571403 z"
       id="path72-3-3-6"
       style="color:#e5e9ef;fill:#af905e;fill-opacity:1;stroke-width:0.0306125"
       class="ColorScheme-Text" />
  </g>
  <g
     id="microphone-sensitivity-low"
     transform="translate(64.000003)"
     style="fill:#e1e1e1;fill-opacity:1">
    <path
       style="opacity:0.00100002;fill:#e1e1e1;fill-opacity:1"
       d="M 0,0 H 32.000001 V 32.000001 H 0 Z"
       id="path38" />
    <path
       d="m 6,13.200001 v 2.799996 c 0,3.628511 2.34831,6.65575 6,7.350574 V 26 H 9.2 C 8,26 8,28 9.2,28 h 9.600002 c 1.2,0 1.2,-2 0,-2 h -2.8 v -2.649429 c 3.65168,-0.694824 6,-3.722063 6,-7.350574 v -2.799996 c 0,-1.2 -2,-1.2 -2,0 V 16 c 0,3.313698 -2.46538,5.7 -6,5.7 C 10.46538,21.7 8,19.313698 8,16 V 13.2 C 8,12 6,12 6,13.200001 Z M 14.000002,4 C 11.34903,4 9.2,6.014722 9.2,8.499999 v 7.499997 c 0,2.485274 2.14903,4.499999 4.800002,4.499999 2.65097,0 4.8,-2.014725 4.8,-4.499998 V 8.499999 C 18.800002,6.014722 16.650972,4 14.000002,4 Z"
       id="path661-7"
       sodipodi:nodetypes="csccccccccsccsssccsssssss"
       style="fill:#e1e1e1;fill-opacity:1" />
    <path
       d="m 28.142847,6.5714113 c 0,1.4208607 -1.15056,2.5714459 -2.571424,2.5714459 -1.419634,0 -2.571401,-1.1505852 -2.571401,-2.5714459 C 23.000022,5.151768 24.151789,4 25.571423,4 c 1.420864,0 2.571424,1.151768 2.571424,2.5714113 z"
       id="path72-3-5"
       style="color:#e5e9ef;fill:#af905e;fill-opacity:0.501961;stroke-width:0.0306125"
       class="ColorScheme-Text" />
    <path
       d="m 28.142847,12.999987 c 0,1.420867 -1.15056,2.571441 -2.571424,2.571441 -1.419634,0 -2.571401,-1.150574 -2.571401,-2.571441 0,-1.419647 1.151767,-2.571415 2.571401,-2.571415 1.420864,0 2.571424,1.151768 2.571424,2.571415 z"
       id="path72-3-3-3"
       style="color:#e5e9ef;fill:#af905e;fill-opacity:0.501961;stroke-width:0.0306122"
       class="ColorScheme-Text" />
    <path
       d="m 28.142841,19.428553 c 0,1.420869 -1.15058,2.571447 -2.571424,2.571447 -1.419634,0 -2.571415,-1.150578 -2.571415,-2.571447 0,-1.419639 1.151781,-2.571405 2.571415,-2.571405 1.420844,0 2.571424,1.151766 2.571424,2.571405 z"
       id="path72-3-3-6-5"
       style="color:#e5e9ef;fill:#af905e;fill-opacity:1;stroke-width:0.0306125"
       class="ColorScheme-Text" />
  </g>
  <g
     id="microphone-sensitivity-muted"
     transform="translate(96.000004)">
    <path
       style="opacity:0.00100002;fill:#e5e9ef;fill-opacity:1"
       d="M 0,0 H 31.999997 V 32.000001 H 0 Z"
       id="path45" />
    <path
       d="m 6,13.200001 v 2.799996 c 0,3.628511 2.34831,6.655749 6,7.350574 v 2.649428 H 9.2 c -1.2,0 -1.2,2 0,2 h 9.6 c 1.2,0 1.2,-2 0,-2 H 16 v -2.649428 c 3.65169,-0.694826 6,-3.722066 6,-7.350574 v -2.799996 c 0,-1.2 -2,-1.2 -2,0 V 16 c 0,3.313698 -2.46538,5.7 -6,5.7 -3.53462,0 -6,-2.386302 -6,-5.7 V 13.2 C 8,12 6,12 6,13.200001 Z M 14,4 C 11.34903,4 9.2,6.014722 9.2,8.499999 v 7.499996 c 0,2.485274 2.14903,4.499999 4.8,4.499999 2.65097,0 4.8,-2.014724 4.8,-4.499997 V 8.499999 C 18.8,6.014722 16.65097,4 14,4 Z"
       id="path661-6-2-6"
       sodipodi:nodetypes="csccccccccsccsssccsssssss"
       style="fill:#e1e1e1;fill-opacity:1" />
    <path
       d="m 28.142842,6.5714112 c 0,1.4208608 -1.15056,2.5714458 -2.57142,2.5714458 -1.41963,0 -2.571402,-1.150585 -2.571402,-2.5714458 C 23.00002,5.151768 24.151792,4 25.571422,4 c 1.42086,0 2.57142,1.151768 2.57142,2.5714112 z"
       id="path72-3-2-7-0"
       style="color:#e5e9ef;fill:#da4453;fill-opacity:1;stroke-width:0.0306126"
       class="ColorScheme-Text" />
    <path
       d="m 28.142841,12.999987 c 0,1.420867 -1.15056,2.571443 -2.57142,2.571443 -1.41963,0 -2.571401,-1.150576 -2.571401,-2.571443 0,-1.419647 1.151771,-2.571417 2.571401,-2.571417 1.42086,0 2.57142,1.15177 2.57142,2.571417 z"
       id="path72-3-3-9-0-6"
       style="color:#e5e9ef;fill:#da4453;fill-opacity:1;stroke-width:0.0306125"
       class="ColorScheme-Text" />
    <path
       d="m 27.969086,20.987037 -1.55866,-1.55862 1.558172,-1.558224 c 0.231773,-0.231844 0.231773,-0.60755 0,-0.839287 -0.231831,-0.231657 -0.607563,-0.231657 -0.839051,0 l -1.558286,1.55835 -1.558328,-1.55835 c -0.231621,-0.231657 -0.607329,-0.231748 -0.839161,9e-5 -0.23168,0.231701 -0.23168,0.607439 1.11e-4,0.839194 l 1.558286,1.558227 -1.558407,1.558606 c -0.231688,0.231713 -0.231688,0.607503 0,0.839148 C 23.289585,21.941929 23.441474,22 23.593389,22 c 0.151826,0 0.30369,-0.05801 0.419637,-0.173829 l 1.558402,-1.558605 1.558542,1.558605 C 27.24576,21.941939 27.397697,22 27.549508,22 c 0.151779,0 0.303795,-0.05801 0.419536,-0.173829 0.231761,-0.231643 0.231761,-0.607432 0,-0.839148 z"
       id="path3490-3-36"
       style="fill:#da4453;fill-opacity:1;stroke-width:0.0121872;enable-background:new" />
  </g>
  <g
     id="22-22-microphone-sensitivity-high"
     transform="translate(10e-7,-22)"
     style="fill:#e1e1e1;fill-opacity:1">
    <path
       style="opacity:0.00100002;fill:#e1e1e1;fill-opacity:1"
       d="M 0,0 H 22 V 22 H 0 Z"
       id="path7-5" />
    <path
       fill="currentColor"
       class="ColorScheme-Text"
       d="m 4.5,9.133339 v 1.866659 c 0,2.419002 1.526404,4.437167 3.899999,4.900388 l 4e-6,1.766278 H 6.58 c -0.779998,0 -0.779998,1.333335 0,1.333335 h 6.240002 c 0.779999,0 0.779999,-1.333334 0,-1.333334 h -1.820008 v -1.766278 c 2.373607,-0.463222 3.899999,-2.481387 3.899999,-4.900388 v -1.86666 c 0,-0.8 -1.299992,-0.8 -1.299992,0 V 11 c 0,2.209139 -1.602506,3.800001 -3.899995,3.800001 C 7.402499,14.800001 5.800002,13.209139 5.800002,11 V 9.133338 c 0,-0.8 -1.299999,-0.8 -1.300002,10e-7 z M 9.700006,3 C 7.976868,3 6.580002,4.343144 6.580002,5.999999 v 4.999997 c 0,1.656851 1.396866,2.999998 3.120004,2.999998 1.723125,0 3.119996,-1.343147 3.119996,-2.999998 V 5.999999 C 12.820002,4.343144 11.423131,3 9.700006,3 Z"
       id="path661-6-2"
       style="color:#bac8df;fill:#e1e1e1;fill-opacity:1;stroke-width:1.01981"
       sodipodi:nodetypes="csccccccccsccsssccsssssss" />
    <path
       d="m 19.818182,3.9090718 c 0,1.0549064 -0.85423,1.90911 -1.909114,1.90911 C 16.855081,5.8181818 16,4.9639782 16,3.9090718 16,2.85512 16.855081,2 17.909068,2 c 1.054884,0 1.909114,0.85512 1.909114,1.9090718 z"
       id="path72-3-2-7"
       style="color:#e5e9ef;fill:#af905e;fill-opacity:1;stroke-width:0.0227281"
       class="ColorScheme-Text" />
    <path
       d="m 19.818182,8.9999875 c 0,1.0549025 -0.85423,1.9091025 -1.909114,1.9091025 C 16.855081,10.90909 16,10.05489 16,8.9999875 16,7.946033 16.855081,7.0909088 17.909068,7.0909088 c 1.054884,0 1.909114,0.8551242 1.909114,1.9090787 z"
       id="path72-3-3-9-0"
       style="color:#e5e9ef;fill:#af905e;fill-opacity:1;stroke-width:0.0227281"
       class="ColorScheme-Text" />
    <path
       d="M 19.818182,14.090881 C 19.818182,15.145759 18.963949,16 17.909083,16 16.855093,16 16,15.145759 16,14.090881 c 0,-1.053981 0.855093,-1.909063 1.909083,-1.909063 1.054866,0 1.909099,0.855082 1.909099,1.909063 z"
       id="path72-3-3-6-1-9"
       style="color:#e5e9ef;fill:#af905e;fill-opacity:1;stroke-width:0.0227282"
       class="ColorScheme-Text" />
  </g>
  <g
     id="22-22-microphone-sensitivity-medium"
     transform="translate(32.000002,-22)"
     style="fill:#e1e1e1;fill-opacity:1">
    <path
       style="opacity:0.00100002;fill:#e1e1e1;fill-opacity:1"
       d="M 0,0 H 22 V 22 H 0 Z"
       id="path12" />
    <path
       fill="currentColor"
       class="ColorScheme-Text"
       d="m 4.4,9.133339 v 1.866659 c 0,2.419002 1.526404,4.437167 3.899999,4.900388 l 4e-6,1.766278 H 6.48 c -0.779998,0 -0.779998,1.333335 0,1.333335 h 6.240002 c 0.779999,0 0.779999,-1.333335 0,-1.333335 h -1.820008 v -1.766277 c 2.373607,-0.463221 3.899999,-2.481387 3.899999,-4.900388 v -1.86666 c 0,-0.8 -1.299992,-0.8 -1.299992,0 V 11 c 0,2.209139 -1.602506,3.800002 -3.899995,3.800002 C 7.302499,14.800002 5.700002,13.20914 5.700002,11 V 9.133338 c 0,-0.8 -1.299999,-0.8 -1.300002,10e-7 z M 9.600006,3 C 7.876868,3 6.480002,4.343144 6.480002,5.999999 v 4.999997 c 0,1.656852 1.396866,2.999999 3.120004,2.999999 1.723125,0 3.119996,-1.343147 3.119996,-2.999999 V 5.999999 C 12.720002,4.343144 11.323131,3 9.600006,3 Z"
       id="path661-6-2-3"
       style="color:#bac8df;fill:#e1e1e1;fill-opacity:1;stroke-width:1.01981"
       sodipodi:nodetypes="csccccccccsccsssccsssssss" />
    <path
       d="m 19.91364,3.909072 c 0,1.054906 -0.875589,1.90911 -1.95684,1.90911 C 16.876456,5.818182 16,4.963978 16,3.909072 16,2.85512 16.876456,2 17.9568,2 c 1.081251,0 1.95684,0.85512 1.95684,1.909072 z"
       id="path72-3-2-7-6"
       style="color:#e5e9ef;fill:#af905e;fill-opacity:0.5;stroke-width:0.0230112"
       class="ColorScheme-Text" />
    <path
       d="m 19.81818,8.9999875 c 0,1.0549025 -0.85423,1.9091045 -1.909099,1.9091045 C 16.85508,10.909092 16,10.05489 16,8.9999875 16,7.9460328 16.85508,7.090909 17.909081,7.090909 c 1.054869,0 1.909099,0.8551238 1.909099,1.9090785 z"
       id="path72-3-3-9-0-7"
       style="color:#e5e9ef;fill:#af905e;fill-opacity:1;stroke-width:0.0227284"
       class="ColorScheme-Text" />
    <path
       d="M 19.818179,14.090882 C 19.818179,15.14576 18.963945,16 17.909083,16 16.85509,16 16,15.14576 16,14.090882 16,13.0369 16.85509,12.18182 17.909083,12.18182 c 1.054862,0 1.909096,0.85508 1.909096,1.909062 z"
       id="path72-3-3-6-1-9-5"
       style="color:#e5e9ef;fill:#af905e;fill-opacity:1;stroke-width:0.0227284"
       class="ColorScheme-Text" />
  </g>
  <g
     id="22-22-microphone-sensitivity-low"
     transform="translate(64.000003,-22)"
     style="fill:#e1e1e1;fill-opacity:1">
    <path
       style="opacity:0.00100002;fill:#e1e1e1;fill-opacity:1"
       d="M 0,0 H 22 V 22 H 0 Z"
       id="path19" />
    <path
       fill="currentColor"
       class="ColorScheme-Text"
       d="m 4.5,9.133339 v 1.866659 c 0,2.419002 1.526404,4.437167 3.899999,4.900388 l 4e-6,1.766278 H 6.58 c -0.779998,0 -0.779998,1.333335 0,1.333335 h 6.240002 c 0.779999,0 0.779999,-1.333335 0,-1.333335 h -1.820008 v -1.766277 c 2.373607,-0.463223 3.899999,-2.481387 3.899999,-4.900388 v -1.86666 c 0,-0.8 -1.299992,-0.8 -1.299992,0 V 11 c 0,2.209139 -1.602506,3.800002 -3.899995,3.800002 C 7.402499,14.800002 5.800002,13.20914 5.800002,11 V 9.133338 c 0,-0.8 -1.299999,-0.8 -1.300002,10e-7 z M 9.700006,3 C 7.976868,3 6.580002,4.343144 6.580002,5.999999 v 4.999997 c 0,1.656852 1.396866,2.999999 3.120004,2.999999 1.723125,0 3.119996,-1.343147 3.119996,-2.999999 V 5.999999 C 12.820002,4.343144 11.423131,3 9.700006,3 Z"
       id="path661-6-2-35"
       style="color:#bac8df;fill:#e1e1e1;fill-opacity:1;stroke-width:1.01981"
       sodipodi:nodetypes="csccccccccsccsssccsssssss" />
    <path
       d="m 19.818179,3.9090721 c 0,1.0549058 -0.854232,1.90911 -1.909098,1.90911 C 16.855078,5.8181821 16,4.9639779 16,3.9090721 16,2.85512 16.855078,2 17.909081,2 c 1.054866,0 1.909098,0.85512 1.909098,1.9090721 z"
       id="path72-3-2-7-62"
       style="color:#e5e9ef;fill:#af905e;fill-opacity:0.501961;stroke-width:0.0227286"
       class="ColorScheme-Text" />
    <path
       d="m 19.818179,8.999988 c 0,1.054903 -0.854232,1.909106 -1.909098,1.909106 C 16.855078,10.909094 16,10.054891 16,8.999988 c 0,-1.0539551 0.855078,-1.9090789 1.909081,-1.9090789 1.054866,0 1.909098,0.8551238 1.909098,1.9090789 z"
       id="path72-3-3-9-0-9"
       style="color:#e5e9ef;fill:#af905e;fill-opacity:0.501961;stroke-width:0.0227285"
       class="ColorScheme-Text" />
    <path
       d="M 19.818178,14.090883 C 19.818178,15.145761 18.963945,16 17.909082,16 16.85509,16 16,15.145761 16,14.090883 c 0,-1.053983 0.85509,-1.909062 1.909082,-1.909062 1.054863,0 1.909096,0.855079 1.909096,1.909062 z"
       id="path72-3-3-6-1-9-1"
       style="color:#e5e9ef;fill:#af905e;fill-opacity:1;stroke-width:0.0227285"
       class="ColorScheme-Text" />
  </g>
</svg>
