<?xml version="1.0" encoding="UTF-8" standalone="no"?>
<svg
   version="1.1"
   viewBox="0 0 32 16"
   id="svg11"
   sodipodi:docname="mobile.svg"
   inkscape:version="1.2.2 (b0a8486541, 2022-12-01)"
   xmlns:inkscape="http://www.inkscape.org/namespaces/inkscape"
   xmlns:sodipodi="http://sodipodi.sourceforge.net/DTD/sodipodi-0.dtd"
   xmlns="http://www.w3.org/2000/svg"
   xmlns:svg="http://www.w3.org/2000/svg">
  <sodipodi:namedview
     id="namedview13"
     pagecolor="#333333"
     bordercolor="#000000"
     borderopacity="1"
     inkscape:showpageshadow="true"
     inkscape:pageopacity="0"
     inkscape:pagecheckerboard="true"
     inkscape:deskcolor="#404040"
     showgrid="true"
     inkscape:lockguides="false"
     inkscape:zoom="14.75"
     inkscape:cx="6.2372881"
     inkscape:cy="12.033898"
     inkscape:window-width="1920"
     inkscape:window-height="1000"
     inkscape:window-x="0"
     inkscape:window-y="0"
     inkscape:window-maximized="1"
     inkscape:current-layer="svg11">
    <inkscape:grid
       type="xygrid"
       id="grid1432" />
  </sodipodi:namedview>
  <defs
     id="defs3">
    <style
       id="current-color-scheme"
       type="text/css">.ColorScheme-Text { color:#d1d5e9; }
</style>
  </defs>
  <g
     id="mobile-close-app"
     style="fill:#bac8df;fill-opacity:1">
    <path
       d="m 24.000038,9.6185045 4.046182,4.0462795 c 0.446963,0.44695 1.171677,0.44695 1.618599,0 0.446979,-0.44695 0.446979,-1.171549 0,-1.6185 l -4.046315,-4.0462755 4.04632,-4.04628 c 0.446984,-0.446946 0.446984,-1.171572 0,-1.618514 -0.446927,-0.446946 -1.171633,-0.446946 -1.6186,0 l -4.046186,4.046286 -4.046316,-4.046291 c -0.446943,-0.446946 -1.171592,-0.446946 -1.618512,0 -0.446947,0.44694 -0.446947,1.171569 0,1.618512 l 4.046286,4.046287 -4.046282,4.0462785 c -0.446946,0.446951 -0.446946,1.17155 0,1.6185 0.446923,0.446951 1.171566,0.446951 1.618514,0 z"
       style="fill:#e1e1e1;fill-opacity:1;fill-rule:evenodd;stroke:none;stroke-width:0.76293"
       id="path2830" />
  </g>
  <g
     id="mobile-task-switcher">
    <path
       class="ColorScheme-Text"
       d="M 4.0856493,2 C 2.9312397,2 2,2.9290344 2,4.083444 v 7.835624 C 2,13.073476 2.9312397,14 4.0856493,14 h 7.8356237 c 1.154409,0 2.084139,-0.926524 2.083444,-2.080932 L 14,4.083444 C 13.999305,2.9290346 13.075682,2 11.921273,2 Z M 4.9999998,3.9999999 H 11 c 0.593971,0 1,0.40603 1,1.0000001 v 6 c 0,0.59397 -0.406029,1 -1,1 H 4.9999998 C 4.4060305,12 4.0000001,11.59397 4.0000001,11 V 5 c 0,-0.5939701 0.4060319,-1.0000001 0.9999997,-1.0000001 z"
       stroke-opacity="0"
       stroke-width="0.500106"
       id="path5"
       style="fill:#e1e1e1;fill-opacity:1"
       sodipodi:nodetypes="ssssssssssssssssss" />
    <rect
       style="fill:#af905e;fill-opacity:1;stroke:none;stroke-width:0.605225;enable-background:new"
       id="center-3-35-3"
       width="8.3999996"
       height="8.4000015"
       x="3.8"
       y="-12.200002"
       ry="1.050002"
       transform="rotate(90)"
       rx="1.05" />
  </g>
</svg>
