<?xml version="1.0" encoding="UTF-8" standalone="no"?>
<svg
   width="32"
   height="32"
   viewBox="0 0 8.4666662 8.4666666"
   version="1.1"
   id="svg830"
   inkscape:version="1.2.2 (b0a8486541, 2022-12-01)"
   sodipodi:docname="notifications.svg"
   xmlns:inkscape="http://www.inkscape.org/namespaces/inkscape"
   xmlns:sodipodi="http://sodipodi.sourceforge.net/DTD/sodipodi-0.dtd"
   xmlns="http://www.w3.org/2000/svg"
   xmlns:svg="http://www.w3.org/2000/svg"
   xmlns:rdf="http://www.w3.org/1999/02/22-rdf-syntax-ns#"
   xmlns:cc="http://creativecommons.org/ns#"
   xmlns:dc="http://purl.org/dc/elements/1.1/">
  <defs
     id="defs824" />
  <sodipodi:namedview
     id="base"
     pagecolor="#333333"
     bordercolor="#000000"
     borderopacity="1"
     inkscape:pageopacity="0"
     inkscape:pageshadow="2"
     inkscape:zoom="3.9999998"
     inkscape:cx="-8.7500004"
     inkscape:cy="81.625004"
     inkscape:document-units="px"
     inkscape:current-layer="layer1"
     showgrid="true"
     units="px"
     inkscape:snap-intersection-paths="true"
     inkscape:object-paths="true"
     inkscape:snap-smooth-nodes="true"
     inkscape:object-nodes="true"
     inkscape:window-width="1920"
     inkscape:window-height="1000"
     inkscape:window-x="0"
     inkscape:window-y="0"
     inkscape:window-maximized="1"
     inkscape:snap-global="true"
     showguides="true"
     inkscape:document-rotation="0"
     inkscape:lockguides="false"
     inkscape:pagecheckerboard="true"
     inkscape:showpageshadow="true"
     inkscape:deskcolor="#404040">
    <inkscape:grid
       type="xygrid"
       id="grid718"
       originx="3.6176757e-08"
       originy="-2.4375e-06" />
  </sodipodi:namedview>
  <metadata
     id="metadata827">
    <rdf:RDF>
      <cc:Work
         rdf:about="">
        <dc:format>image/svg+xml</dc:format>
        <dc:type
           rdf:resource="http://purl.org/dc/dcmitype/StillImage" />
      </cc:Work>
    </rdf:RDF>
  </metadata>
  <style
     type="text/css"
     id="current-color-scheme" />
  <g
     inkscape:label="Layer 1"
     inkscape:groupmode="layer"
     id="layer1"
     transform="translate(-2.1166668,-274.2334)">
    <g
       id="notifications">
      <rect
         ry="1.2988289e-06"
         y="282.71249"
         x="2.1166666"
         height="8.4666662"
         width="8.4666662"
         id="rect891-7"
         style="opacity:0.003;fill:#050505;fill-opacity:1;stroke:none;stroke-width:0.10795;stroke-miterlimit:4;stroke-dasharray:none;stroke-opacity:1" />
      <path
         d="M 8.6353464,288.00415 H 4.0646509 c -0.05275,0 -0.0959,-0.11906 -0.0959,-0.26458 0,-0.14552 0.04314,-0.26459 0.0959,-0.26459 h 4.5706955 c 0.052747,0 0.095904,0.11907 0.095904,0.26459 0,0.14552 -0.043143,0.26458 -0.095904,0.26458 z"
         id="path38"
         style="color:#d1d5e9;fill:#af905e;fill-opacity:1;stroke-width:0.159292"
         class="ColorScheme-Text" />
      <path
         fill-rule="evenodd"
         clip-rule="evenodd"
         d="m 6.2447219,284.29998 c -0.818615,0 -1.482222,0.66361 -1.482222,1.48221 v 1.10119 c 0,0.49098 -0.239736,0.95104 -0.64217,1.23235 l -0.203877,0.1425 c -0.133035,0.093 -0.212286,0.24506 -0.212286,0.40738 0,0.0731 0.05923,0.13229 0.132292,0.13229 h 5.0270827 c 0.073051,0 0.1322916,-0.0592 0.1322916,-0.13229 0,-0.16497 -0.078766,-0.32001 -0.2119577,-0.4173 l -0.2086768,-0.15243 c -0.4007644,-0.29271 -0.6376988,-0.75917 -0.6376988,-1.25545 v -1.07487 c 0,-0.80941 -0.6561666,-1.46558 -1.46558,-1.46558 z m 0.23757,5.82084 c -0.466514,0 -0.852472,-0.34499 -0.916665,-0.79375 h -1.729168 c -0.365313,0 -0.661459,-0.29615 -0.661459,-0.66146 0,-0.33512 0.163624,-0.64913 0.438293,-0.84111 l 0.203877,-0.14251 c 0.2608,-0.18229 0.416164,-0.48043 0.416164,-0.79861 v -1.10119 c 0,-1.11085 0.900522,-2.01137 2.011388,-2.01137 h 0.227198 c 1.1016721,0 1.9947467,0.89307 1.9947467,1.99474 v 1.07487 c 0,0.32737 0.1562893,0.63506 0.4206345,0.82815 l 0.2086769,0.1524 c 0.2696369,0.19693 0.4290219,0.51075 0.4290219,0.84463 0,0.36531 -0.2961482,0.66146 -0.6614583,0.66146 H 7.398967 c -0.064214,0.44876 -0.4501621,0.79375 -0.9166751,0.79375 z m -0.37428,-0.79375 c 0.05448,0.15414 0.20148,0.26458 0.37428,0.26458 0.172799,0 0.319802,-0.11044 0.374279,-0.26458 z"
         id="path1145-3-6"
         style="fill:#e1e1e1;fill-opacity:1;stroke-width:0.264583" />
    </g>
    <g
       id="notifications-disabled">
      <rect
         ry="1.2988289e-06"
         y="274.2334"
         x="2.1166668"
         height="8.4666662"
         width="8.4666662"
         id="rect891-7-2"
         style="opacity:0.003;fill:#050505;fill-opacity:1;stroke:none;stroke-width:0.10795;stroke-miterlimit:4;stroke-dasharray:none;stroke-opacity:1" />
      <path
         d="m 3.4395835,280.45108 c 0.1461241,0 0.2645833,-0.11845 0.2645833,-0.26458 0,-0.16232 0.079251,-0.31441 0.2122858,-0.40738 l 0.2038773,-0.14251 c 0.4024339,-0.2813 0.6421702,-0.74136 0.6421702,-1.23234 v -1.10119 c 0,-0.8186 0.6636067,-1.48221 1.4822222,-1.48221 H 6.47192 c 0.3448844,0 0.6707716,0.11919 0.9313333,0.3339 0.1127654,0.0929 0.2795058,0.0768 0.3724275,-0.0359 0.092948,-0.11277 0.076861,-0.27952 -0.035904,-0.37245 -0.3544622,-0.2921 -0.7990151,-0.45469 -1.2678568,-0.45469 H 6.2447223 c -1.1108663,0 -2.0113888,0.90052 -2.0113888,2.01137 v 1.10119 c 0,0.31818 -0.1553634,0.61632 -0.4161631,0.79861 l -0.2038774,0.14251 c -0.2746692,0.19198 -0.4382928,0.50599 -0.4382928,0.84111 0,0.14613 0.1184566,0.26458 0.2645833,0.26458 z"
         id="path2212"
         style="fill:#e1e1e1;fill-opacity:1;stroke-width:0.264583" />
      <path
         fill-rule="evenodd"
         clip-rule="evenodd"
         d="m 6.4822917,281.64171 c 0.4665133,0 0.852461,-0.34499 0.9166754,-0.79375 h 1.4645745 c 0.3653101,0 0.6614583,-0.29615 0.6614583,-0.66146 0,-0.33388 -0.159385,-0.6477 -0.4290219,-0.84463 l -0.2086769,-0.1524 c -0.2643452,-0.19309 -0.4206345,-0.50078 -0.4206345,-0.82815 v -0.35959 c 0,-0.14612 -0.118454,-0.26457 -0.2645833,-0.26457 -0.1461294,0 -0.2645834,0.11845 -0.2645834,0.26457 v 0.35959 c 0,0.49628 0.2369344,0.96274 0.6376988,1.25545 l 0.2086768,0.15243 c 0.1331913,0.0973 0.2119577,0.25233 0.2119577,0.4173 0,0.0731 -0.05924,0.13229 -0.1322916,0.13229 h -3.243093 c -0.1461241,0 -0.2645834,0.11845 -0.2645834,0.26458 0,0.12703 0.089535,0.23318 0.2089441,0.25871 0.061656,0.45165 0.4489318,0.79963 0.9174824,0.79963 z m 0,-0.52917 c -0.1727994,0 -0.3198019,-0.11044 -0.3742796,-0.26458 h 0.7485591 c -0.054478,0.15414 -0.2014802,0.26458 -0.3742795,0.26458 z"
         id="path2214"
         style="fill:#e1e1e1;fill-opacity:1;stroke-width:0.264583" />
      <path
         d="m 3.5170773,280.92545 c -0.1033251,0.10332 -0.1033251,0.27086 0,0.37418 0.1033277,0.10332 0.2708513,0.10332 0.374179,0 l 5.2916638,-5.29167 c 0.1033198,-0.10332 0.1033198,-0.27085 0,-0.37418 -0.1033198,-0.10332 -0.270854,-0.10332 -0.3741737,0 z"
         id="path2216"
         style="fill:#af905e;fill-opacity:1;stroke-width:0.264583" />
    </g>
    <g
       id="22-22-notifications-disabled">
      <rect
         ry="1.2988282e-06"
         y="291.18149"
         x="0.010207531"
         height="5.8208332"
         width="5.8208332"
         id="rect1383"
         style="opacity:0.003;fill:#ff1f1f;fill-opacity:1;stroke:none;stroke-width:0.10795;stroke-miterlimit:4;stroke-dasharray:none;stroke-opacity:1" />
      <path
         d="m 0.98031948,295.41475 c 0.09742,0 0.17638192,-0.0787 0.17638192,-0.17638 0,-0.10821 0.05285,-0.2096 0.141523,-0.27161 l 0.135916,-0.0949 c 0.268289,-0.18754 0.428112,-0.49422 0.428112,-0.8216 v -0.73402 c 0,-0.54576 0.442401,-0.9882 0.988141,-0.9882 h 0.151467 c 0.229922,0 0.447176,0.0793 0.620885,0.2226 0.07517,0.062 0.186339,0.0511 0.248284,-0.0239 0.06196,-0.0753 0.05126,-0.18635 -0.0239,-0.24825 -0.23631,-0.19485 -0.532677,-0.30325 -0.845234,-0.30325 h -0.151468 c -0.740574,0 -1.340921,0.60035 -1.340921,1.34096 v 0.73407 c 0,0.21217 -0.103571,0.41086 -0.27744,0.53239 l -0.135917,0.095 c -0.1831109,0.12798 -0.2921919,0.33733 -0.2921919,0.56076 0,0.0974 0.07898,0.17637 0.17638798,0.17637 z"
         id="path2212-6"
         style="fill:#e1e1e1;fill-opacity:1;stroke-width:0.176388" />
      <path
         fill-rule="evenodd"
         clip-rule="evenodd"
         d="m 3.0087804,296.20852 c 0.311002,0 0.568301,-0.22998 0.611108,-0.52916 h 0.976378 c 0.243539,0 0.44097,-0.19747 0.44097,-0.44099 0,-0.22258 -0.106257,-0.43179 -0.286015,-0.5631 l -0.139115,-0.10155 c -0.176232,-0.12875 -0.280425,-0.33385 -0.280425,-0.55211 v -0.23974 c 0,-0.0974 -0.07897,-0.17641 -0.176385,-0.17641 -0.09743,0 -0.176388,0.0787 -0.176388,0.17641 v 0.23974 c 0,0.33083 0.157956,0.64178 0.425128,0.83695 l 0.13912,0.10162 c 0.08878,0.0653 0.141306,0.16819 0.141306,0.27819 0,0.0491 -0.0395,0.0879 -0.08818,0.0879 h -2.162052 c -0.09742,0 -0.176393,0.0787 -0.176393,0.17635 0,0.0847 0.05969,0.15549 0.139299,0.17247 0.04111,0.30112 0.299288,0.53312 0.611656,0.53312 z m 0,-0.35278 c -0.115201,0 -0.213204,-0.0739 -0.249524,-0.17638 h 0.499039 c -0.03632,0.10274 -0.134318,0.17638 -0.249515,0.17638 z"
         id="path2214-7"
         style="fill:#e1e1e1;fill-opacity:1;stroke-width:0.176388" />
      <path
         d="m 1.0319745,295.73099 c -0.06893,0.0687 -0.06893,0.18057 0,0.24949 0.06892,0.0687 0.1805689,0.0687 0.2494539,0 l 3.527758,-3.52778 c 0.06892,-0.0687 0.06892,-0.18055 0,-0.24947 -0.06892,-0.0686 -0.180569,-0.0686 -0.249449,0 z"
         id="path2216-5"
         style="fill:#af905e;fill-opacity:1;stroke-width:0.176388" />
    </g>
    <g
       id="22-22-notifications">
      <rect
         ry="1.2988282e-06"
         y="296.98755"
         x="5.0888659e-08"
         height="5.8208332"
         width="5.8208332"
         id="rect1383-2"
         style="opacity:0.003;fill:#ff1f1f;fill-opacity:1;stroke:none;stroke-width:0.10795;stroke-miterlimit:4;stroke-dasharray:none;stroke-opacity:1" />
      <path
         d="m 4.4441987,300.6975 h -3.047144 c -0.03515,0 -0.0639,-0.0607 -0.0639,-0.1352 0,-0.0743 0.02874,-0.13515 0.0639,-0.13515 h 3.047144 c 0.03515,0 0.0639,0.0607 0.0639,0.13515 0,0.0744 -0.02874,0.1352 -0.0639,0.1352 z"
         id="path38-5"
         style="color:#d1d5e9;fill:#af905e;fill-opacity:1;stroke-width:0.0929764"
         class="ColorScheme-Text" />
      <path
         fill-rule="evenodd"
         clip-rule="evenodd"
         d="m 2.8504427,298.14882 c -0.545745,0 -0.988153,0.44236 -0.988153,0.98816 v 0.73401 c 0,0.32744 -0.159822,0.63412 -0.428115,0.82165 l -0.135912,0.0949 c -0.0887,0.0615 -0.141532,0.16333 -0.141532,0.2716 0,0.0491 0.03947,0.088 0.08823,0.088 h 3.35139 c 0.0487,0 0.08822,-0.0396 0.08822,-0.088 0,-0.10999 -0.05249,-0.21332 -0.1413,-0.27823 l -0.139128,-0.10154 c -0.267173,-0.19515 -0.425135,-0.5062 -0.425135,-0.83703 v -0.71653 c 0,-0.5397 -0.437446,-0.97707 -0.977051,-0.97707 z m 0.158386,3.88052 c -0.311019,0 -0.568316,-0.22991 -0.61112,-0.52908 h -1.152771 c -0.243554,0 -0.4409802,-0.1975 -0.4409802,-0.44104 0,-0.22347 0.10908012,-0.43274 0.2922002,-0.56072 l 0.135915,-0.095 c 0.17387,-0.12149 0.277445,-0.32021 0.277445,-0.53244 v -0.73402 c 0,-0.74057 0.600343,-1.34097 1.340925,-1.34097 h 0.151469 c 0.734448,0 1.329831,0.59543 1.329831,1.32987 v 0.71654 c 0,0.21829 0.104187,0.42336 0.280424,0.55216 l 0.139114,0.10149 c 0.179763,0.13132 0.286023,0.34057 0.286023,0.56314 0,0.24355 -0.197432,0.44105 -0.440976,0.44105 h -0.976391 c -0.04279,0.29917 -0.300102,0.52908 -0.611108,0.52908 z m -0.249529,-0.52908 c 0.03632,0.10271 0.134329,0.17635 0.249529,0.17635 0.115199,0 0.213193,-0.0736 0.249511,-0.17635 z"
         id="path1145-3-6-6"
         style="fill:#e1e1e1;fill-opacity:1;stroke-width:0.176395" />
    </g>
  </g>
</svg>
