<?xml version="1.0" encoding="UTF-8" standalone="no"?>
<svg
   width="32"
   height="32"
   version="1.1"
   id="svg3204"
   sodipodi:docname="office.svg"
   inkscape:version="1.2.2 (b0a8486541, 2022-12-01)"
   xmlns:inkscape="http://www.inkscape.org/namespaces/inkscape"
   xmlns:sodipodi="http://sodipodi.sourceforge.net/DTD/sodipodi-0.dtd"
   xmlns="http://www.w3.org/2000/svg"
   xmlns:svg="http://www.w3.org/2000/svg">
  <sodipodi:namedview
     id="namedview3206"
     pagecolor="#333333"
     bordercolor="#000000"
     borderopacity="1"
     inkscape:showpageshadow="true"
     inkscape:pageopacity="0"
     inkscape:pagecheckerboard="true"
     inkscape:deskcolor="#404040"
     showgrid="true"
     inkscape:zoom="14.75"
     inkscape:cx="11.559322"
     inkscape:cy="18.033898"
     inkscape:window-width="1920"
     inkscape:window-height="1000"
     inkscape:window-x="0"
     inkscape:window-y="0"
     inkscape:window-maximized="1"
     inkscape:current-layer="svg3204">
    <inkscape:grid
       type="xygrid"
       id="grid690" />
  </sodipodi:namedview>
  <defs
     id="defs5">
    <style
       id="current-color-scheme"
       type="text/css">.ColorScheme-Background { color:#181818; }
.ColorScheme-ButtonBackground { color:#343434; }
.ColorScheme-Highlight { color:#4285f4; }
.ColorScheme-Text { 
    color:#d1d5e9;
}
.ColorScheme-ViewBackground { color:#242424; }
.ColorScheme-NegativeText { color:#f44336; }
.ColorScheme-PositiveText { color:#4caf50; }
.ColorScheme-NeutralText { color:#ff9800; }
</style>
  </defs>
  <g
     id="office-chart-pie">
    <rect
       style="opacity:0.00100002"
       width="32"
       height="32"
       x="0"
       y="0"
       id="rect3197" />
    <path
       d="M 16.000001,3.9999999 C 9.3520006,3.9999999 4.0000006,9.3519995 4.0000006,15.999999 4.0000006,22.648 9.3520006,28 16.000001,28 c 6.648,0 11.999998,-5.352 11.999998,-12.000001 0,-6.6479996 -5.351998,-11.9999991 -11.999998,-11.9999991 z m 0,1.5 V 15.999999 l 10.499998,-0.01176 v 0.01176 C 26.499999,21.816998 21.817007,26.5 16.000001,26.5 10.183007,26.5 5.5000006,21.816998 5.5000006,15.999999 5.5000006,10.183 10.183007,5.4999998 16.000001,5.4999999 Z"
       id="path362"
       style="fill:#e1e1e1;fill-opacity:1;stroke-width:1.5" />
    <path
       sodipodi:nodetypes="ccccccc"
       inkscape:connector-curvature="0"
       id="path4494"
       d="M 26.5,16 C 26.5,10 21.5,5.5 16,5.5 v 3.5 4 3 0 z"
       style="fill:#af905e;fill-opacity:1;stroke:none;stroke-width:1.54631"
       mask="none" />
  </g>
</svg>
