<?xml version="1.0" encoding="UTF-8" standalone="no"?>
<svg
   width="32"
   height="32"
   x="0"
   y="0"
   version="1.1"
   xml:space="preserve"
   id="svg16"
   sodipodi:docname="thunderbird.svg"
   inkscape:version="1.2.2 (b0a8486541, 2022-12-01)"
   xmlns:inkscape="http://www.inkscape.org/namespaces/inkscape"
   xmlns:sodipodi="http://sodipodi.sourceforge.net/DTD/sodipodi-0.dtd"
   xmlns="http://www.w3.org/2000/svg"
   xmlns:svg="http://www.w3.org/2000/svg"
   xmlns:rdf="http://www.w3.org/1999/02/22-rdf-syntax-ns#"
   xmlns:cc="http://creativecommons.org/ns#"
   xmlns:dc="http://purl.org/dc/elements/1.1/"><metadata
   id="metadata22"><rdf:RDF><cc:Work
       rdf:about=""><dc:format>image/svg+xml</dc:format><dc:type
         rdf:resource="http://purl.org/dc/dcmitype/StillImage" /></cc:Work></rdf:RDF></metadata><defs
   id="defs20">
  </defs><sodipodi:namedview
   pagecolor="#333333"
   bordercolor="#000000"
   borderopacity="1"
   objecttolerance="10"
   gridtolerance="10"
   guidetolerance="10"
   inkscape:pageopacity="0"
   inkscape:pageshadow="2"
   inkscape:window-width="1920"
   inkscape:window-height="1002"
   id="namedview18"
   showgrid="true"
   inkscape:zoom="9.8125"
   inkscape:cx="15.490446"
   inkscape:cy="25.528662"
   inkscape:window-x="0"
   inkscape:window-y="0"
   inkscape:window-maximized="1"
   inkscape:current-layer="svg16"
   inkscape:document-rotation="0"
   inkscape:showpageshadow="true"
   inkscape:pagecheckerboard="true"
   inkscape:deskcolor="#3f3f3f"><inkscape:grid
     type="xygrid"
     id="grid2023"
     originx="0"
     originy="0" /></sodipodi:namedview>
  <g
   id="thunderbird"><rect
     style="opacity:0.00100002;fill:#bac8df;fill-opacity:1"
     width="32"
     height="32"
     x="0"
     y="0"
     id="rect9" /><path
     style="fill:#e1e1e1;fill-opacity:1;stroke:none;stroke-width:0.0545455;stroke-linecap:round;stroke-linejoin:round;stroke-miterlimit:4;stroke-dasharray:none;stroke-opacity:1"
     d="m 28,16 c 0,6.62744 -5.372583,12 -12,12 5.180235,-1.38802 8.727273,-7.63636 9.272727,-10.36364 -1.604013,1.203 -10.141397,4.62415 -14.22553,4.62415 -1.148981,0 -1.988435,0.23034 0.584708,4.68714 C 10.180753,26.5588 8.330088,25.23858 8.019993,24.96225 5.553393,22.76445 4,19.56362 4,16 4,9.37256 9.372583,4 16,4 22.627417,4 28,9.37256 28,16"
     id="path4135"
     inkscape:connector-curvature="0"
     sodipodi:nodetypes="cccccsssc" /><rect
     style="fill:#404040;fill-opacity:1;stroke:none;stroke-width:0.0545455;stroke-linecap:round;stroke-linejoin:round;stroke-miterlimit:4;stroke-dasharray:none;stroke-opacity:1"
     id="rect4137"
     width="18.553415"
     height="12.368943"
     x="8.6103315"
     y="10.14634"
     rx="1.6363636"
     ry="1.6363636"
     transform="rotate(7.0825502)" /><path
     style="color:#000000;font-style:normal;font-variant:normal;font-weight:normal;font-stretch:normal;font-size:medium;line-height:normal;font-family:sans-serif;text-indent:0;text-align:start;text-decoration:none;text-decoration-line:none;text-decoration-style:solid;text-decoration-color:#000000;letter-spacing:normal;word-spacing:normal;text-transform:none;writing-mode:lr-tb;direction:ltr;baseline-shift:baseline;text-anchor:start;white-space:normal;clip-rule:nonzero;display:inline;overflow:visible;visibility:visible;isolation:auto;mix-blend-mode:normal;color-interpolation:sRGB;color-interpolation-filters:linearRGB;solid-color:#000000;solid-opacity:1;fill:#af905e;fill-opacity:1;fill-rule:evenodd;stroke:none;stroke-width:1.09091;stroke-linecap:butt;stroke-linejoin:miter;stroke-miterlimit:4;stroke-dasharray:none;stroke-dashoffset:0;stroke-opacity:1;color-rendering:auto;image-rendering:auto;shape-rendering:auto;text-rendering:auto;enable-background:accumulate"
     d="m 25.785143,12.77069 c -3.011666,1.57958 -6.144087,3.52631 -7.893463,4.41507 -1.749376,0.88877 -2.687075,1.38693 -3.499354,1.38693 -0.812279,0 -1.322557,-0.42169 -2.071988,-1.17114 -0.749433,-0.74946 -3.888406,-3.6167 -5.232178,-4.61755 1.499972,1.70095 4.574506,5.08822 5.229439,5.81869 0.654934,0.73047 1.198074,0.94353 2.078904,0.94353 0.88083,0 1.88173,-0.45677 3.830948,-1.55553 1.949218,-1.09876 5.51027,-3.35984 7.557692,-5.22 z"
     id="path4139"
     inkscape:connector-curvature="0"
     sodipodi:nodetypes="czzzczzzc" /><path
     style="fill:#e1e1e1;fill-opacity:1;fill-rule:evenodd;stroke:none;stroke-width:0.545455px;stroke-linecap:butt;stroke-linejoin:miter;stroke-opacity:1"
     d="m 16,12.18182 c 0,0 4.658822,0.47771 5.405239,3.2634 0.746419,2.78563 -1.563234,6.08623 -1.563234,6.08623 5.65639,-3.26574 4.787099,-8.99961 4.339813,-10.986"
     id="path4153"
     inkscape:connector-curvature="0"
     sodipodi:nodetypes="czcc" /><path
     style="fill:#e1e1e1;fill-opacity:1;fill-rule:evenodd;stroke:none;stroke-width:0.545455px;stroke-linecap:butt;stroke-linejoin:miter;stroke-opacity:1"
     d="m 22.034091,10.375 c 0,0 0.607787,3.59629 0.607787,5.66138 0,2.06515 0.276115,5.65926 -2.278242,8.21362 6.12141,-1.64018 6,-6.05984 6,-12.61364 z"
     id="path4155"
     inkscape:connector-curvature="0"
     sodipodi:nodetypes="czccc" /><path
     style="fill:#af905e;fill-opacity:1;fill-rule:evenodd;stroke:none;stroke-width:0.545455px;stroke-linecap:butt;stroke-linejoin:miter;stroke-opacity:1"
     d="m 7.280801,23.09222 16.231518,1.56573 c 0,0 -0.351038,0.28161 -0.534934,0.41749 -0.183896,0.13587 -0.56829,0.39719 -0.56829,0.39719 L 7.660678,23.64018 Z"
     id="path4229"
     inkscape:connector-curvature="0"
     sodipodi:nodetypes="cczccc" /><path
     style="fill:#e1e1e1;fill-opacity:1;fill-rule:evenodd;stroke:none;stroke-width:0.545455px;stroke-linecap:butt;stroke-linejoin:miter;stroke-opacity:1"
     d="m 9.487633,23.63636 c 0,0 -4.942178,-3.81818 -4.942178,-8.72727 0,-4.90909 1.636363,-4.36364 1.636363,-4.36364 l 3.272728,1.09091 c 0,0 -2.181819,-1.13492 -2.181819,3.81819 0,4.9531 2.214906,8.18181 2.214906,8.18181 z"
     id="path4166"
     inkscape:connector-curvature="0"
     sodipodi:nodetypes="czcczc" /><path
     style="fill:#e1e1e1;fill-opacity:1;fill-rule:evenodd;stroke:none;stroke-width:0.545455px;stroke-linecap:butt;stroke-linejoin:miter;stroke-opacity:1"
     d="M 12.187363,27.37818 C 10.672843,26.97242 7.338225,24.99804 5.701924,22.16385 4.065622,19.32967 4.545455,14.90909 4.545455,14.90909 l 2.727278,-0.55434 c 0,0 -1.174044,3.62383 -0.633001,6.63169 0.541043,3.00791 1.104026,2.78334 5.547631,6.39174 z"
     id="path4170"
     inkscape:connector-curvature="0"
     sodipodi:nodetypes="czcczc" /><ellipse
     style="fill:#e1e1e1;fill-opacity:1;stroke:none;stroke-width:0.545455;stroke-linecap:round;stroke-linejoin:round;stroke-miterlimit:4;stroke-dasharray:none;stroke-opacity:1"
     id="path4174"
     cx="6.9647541"
     cy="16.405333"
     rx="2.869699"
     ry="2.4308035"
     transform="rotate(-30)" /><path
     style="fill:#e1e1e1;fill-opacity:1;fill-rule:evenodd;stroke:none;stroke-width:0.545455px;stroke-linecap:butt;stroke-linejoin:miter;stroke-opacity:1"
     d="m 11.636364,11.63636 c 0.292307,1.09091 0,3.27273 0.660894,4.28073 1.520924,-1.52094 3.157288,-3.18982 4.793651,-4.28073 z"
     id="path4176"
     inkscape:connector-curvature="0"
     sodipodi:nodetypes="cccc" /><path
     style="fill:#e1e1e1;fill-opacity:1;fill-rule:evenodd;stroke:none;stroke-width:0.545455px;stroke-linecap:butt;stroke-linejoin:miter;stroke-opacity:1"
     d="m 7.272727,17.63636 c 0,0 -0.163636,-2.72727 1.636364,-4.36363 1.8,-1.63637 3.818182,-1.65344 3.818182,-1.65344 L 6.471591,9.13065 Z"
     id="path4178"
     inkscape:connector-curvature="0"
     sodipodi:nodetypes="czccc" /><circle
     style="fill:#e6e6e6;fill-opacity:1;stroke:none;stroke-width:0.545455;stroke-linecap:round;stroke-linejoin:round;stroke-miterlimit:4;stroke-dasharray:none;stroke-opacity:1"
     id="path4180"
     cx="13.54399"
     cy="11.363629"
     r="0.27272728" /><path
     style="fill:#ffffff;fill-opacity:0;stroke:none;stroke-width:0.545455;stroke-linecap:round;stroke-linejoin:round;stroke-miterlimit:4;stroke-dasharray:none;stroke-opacity:1"
     d="M 28,16 C 28,10.54545 22.627417,4.54545 16,4.54545 9.372583,4.54545 4,10.54545 4,16 4,9.37256 9.372583,4 16,4 22.627417,4 28,9.37256 28,16 Z"
     id="path4188-9"
     inkscape:connector-curvature="0"
     sodipodi:nodetypes="cscsc" /><path
     style="fill:#af905e;fill-opacity:1;stroke:none;stroke-width:0.545455;stroke-linecap:round;stroke-linejoin:round;stroke-miterlimit:4;stroke-dasharray:none;stroke-opacity:1"
     d="m 16,28 c 6.627417,0 12,-5.37256 12,-12 0,4.95644 -4.436092,10.3632 -10.218791,11.3094 0,0 -0.540365,0.26274 -0.837406,0.3786 C 16.646762,27.80386 16,28 16,28 Z M 11.350566,26.44147 C 7.032142,24.50325 4,20.09773 4,16 c 0,5.29724 3.432342,9.79276 8.194355,11.38402 l -0.572316,-0.46129 z"
     id="path4188-9-2"
     inkscape:connector-curvature="0"
     sodipodi:nodetypes="ccczcccccc" /><path
     d="m 14.299995,11.949995 c 0,0.414417 -0.335585,0.750005 -0.75,0.750005 C 13.135935,12.7 12.8,12.364413 12.8,11.949995 12.8,11.535933 13.135935,11.2 13.549995,11.2 c 0.414415,0 0.75,0.335933 0.75,0.749995 z"
     id="path72-3-3-3"
     style="color:#e5e9ef;fill:#211c12;fill-opacity:1;stroke-width:0.0089288"
     class="ColorScheme-Text" /></g><g
   id="22-22-thunderbird"><rect
     style="opacity:0.00100002;fill:#bac8df;fill-opacity:1"
     width="22"
     height="22"
     x="32"
     y="10"
     id="rect2" /><path
     style="fill:#e1e1e1;fill-opacity:1;stroke:none;stroke-width:0.0363637;stroke-linecap:round;stroke-linejoin:round;stroke-miterlimit:4;stroke-dasharray:none;stroke-opacity:1"
     d="m 51,21 c 0,4.418293 -3.581722,8 -8,8 3.45349,-0.925347 5.818182,-5.090907 6.181818,-6.909093 -1.069342,0.802 -6.760931,3.082766 -9.483687,3.082766 -0.765987,0 -1.325623,0.15356 0.389806,3.12476 -0.967435,-0.259233 -2.201212,-1.13938 -2.407942,-1.3236 C 36.035595,25.509633 35,23.375747 35,21 c 0,-4.418293 3.581722,-8 8,-8 4.418278,0 8,3.581707 8,8"
     id="path4135-3"
     inkscape:connector-curvature="0"
     sodipodi:nodetypes="cccccsssc" /><rect
     style="fill:#404040;fill-opacity:1;stroke:none;stroke-width:0.0363637;stroke-linecap:round;stroke-linejoin:round;stroke-miterlimit:4;stroke-dasharray:none;stroke-opacity:1"
     id="rect4137-6"
     width="12.368943"
     height="8.2459621"
     x="39.100925"
     y="13.032037"
     rx="1.0909091"
     ry="1.0909091"
     transform="rotate(7.0825502)" /><path
     style="color:#000000;font-style:normal;font-variant:normal;font-weight:normal;font-stretch:normal;font-size:medium;line-height:normal;font-family:sans-serif;text-indent:0;text-align:start;text-decoration:none;text-decoration-line:none;text-decoration-style:solid;text-decoration-color:#000000;letter-spacing:normal;word-spacing:normal;text-transform:none;writing-mode:lr-tb;direction:ltr;baseline-shift:baseline;text-anchor:start;white-space:normal;clip-rule:nonzero;display:inline;overflow:visible;visibility:visible;isolation:auto;mix-blend-mode:normal;color-interpolation:sRGB;color-interpolation-filters:linearRGB;solid-color:#000000;solid-opacity:1;fill:#af905e;fill-opacity:1;fill-rule:evenodd;stroke:none;stroke-width:0.727273;stroke-linecap:butt;stroke-linejoin:miter;stroke-miterlimit:4;stroke-dasharray:none;stroke-dashoffset:0;stroke-opacity:1;color-rendering:auto;image-rendering:auto;shape-rendering:auto;text-rendering:auto;enable-background:accumulate"
     d="m 49.523429,18.847127 c -2.007778,1.053053 -4.096058,2.350873 -5.262309,2.94338 -1.166251,0.592513 -1.791383,0.92462 -2.332903,0.92462 -0.541519,0 -0.881704,-0.281127 -1.381325,-0.78076 -0.499622,-0.49964 -2.592271,-2.411134 -3.488119,-3.078367 0.999982,1.133967 3.049671,3.392147 3.486293,3.879127 0.436623,0.48698 0.798716,0.62902 1.385936,0.62902 0.58722,0 1.254487,-0.304514 2.553965,-1.03702 1.299479,-0.732507 3.673514,-2.239894 5.038462,-3.48 z"
     id="path4139-7"
     inkscape:connector-curvature="0"
     sodipodi:nodetypes="czzzczzzc" /><path
     style="fill:#e1e1e1;fill-opacity:1;fill-rule:evenodd;stroke:none;stroke-width:0.363637px;stroke-linecap:butt;stroke-linejoin:miter;stroke-opacity:1"
     d="m 43,18.454547 c 0,0 3.105881,0.318473 3.603493,2.1756 0.497612,1.857086 -1.042156,4.057486 -1.042156,4.057486 3.770926,-2.17716 3.191399,-5.99974 2.893208,-7.324"
     id="path4153-5"
     inkscape:connector-curvature="0"
     sodipodi:nodetypes="czcc" /><path
     style="fill:#e1e1e1;fill-opacity:1;fill-rule:evenodd;stroke:none;stroke-width:0.363637px;stroke-linecap:butt;stroke-linejoin:miter;stroke-opacity:1"
     d="m 47.022727,17.25 c 0,0 0.405192,2.397527 0.405192,3.774253 0,1.376767 0.184076,3.77284 -1.518828,5.475747 4.08094,-1.093453 4,-4.039893 4,-8.409093 z"
     id="path4155-3"
     inkscape:connector-curvature="0"
     sodipodi:nodetypes="czccc" /><path
     style="fill:#af905e;fill-opacity:1;fill-rule:evenodd;stroke:none;stroke-width:0.363637px;stroke-linecap:butt;stroke-linejoin:miter;stroke-opacity:1"
     d="m 37.187201,25.728147 10.821012,1.04382 c 0,0 -0.234026,0.18774 -0.356623,0.278326 -0.122597,0.09058 -0.37886,0.264794 -0.37886,0.264794 l -9.832278,-1.221634 z"
     id="path4229-5"
     inkscape:connector-curvature="0"
     sodipodi:nodetypes="cczccc" /><path
     style="fill:#e1e1e1;fill-opacity:1;fill-rule:evenodd;stroke:none;stroke-width:0.363637px;stroke-linecap:butt;stroke-linejoin:miter;stroke-opacity:1"
     d="m 38.658422,26.090907 c 0,0 -3.294785,-2.545454 -3.294785,-5.81818 0,-3.272727 1.090908,-2.909094 1.090908,-2.909094 l 2.181819,0.727274 c 0,0 -1.454546,-0.756614 -1.454546,2.54546 0,3.302066 1.476604,5.45454 1.476604,5.45454 z"
     id="path4166-6"
     inkscape:connector-curvature="0"
     sodipodi:nodetypes="czcczc" /><path
     style="fill:#e1e1e1;fill-opacity:1;fill-rule:evenodd;stroke:none;stroke-width:0.363637px;stroke-linecap:butt;stroke-linejoin:miter;stroke-opacity:1"
     d="m 40.458242,28.585453 c -1.00968,-0.270506 -3.232759,-1.58676 -4.323626,-3.47622 -1.090868,-1.889453 -0.770979,-4.836506 -0.770979,-4.836506 l 1.818185,-0.36956 c 0,0 -0.782696,2.415886 -0.422001,4.421126 0.360696,2.005274 0.736018,1.85556 3.698421,4.26116 z"
     id="path4170-2"
     inkscape:connector-curvature="0"
     sodipodi:nodetypes="czcczc" /><ellipse
     style="fill:#e1e1e1;fill-opacity:1;stroke:none;stroke-width:0.363637;stroke-linecap:round;stroke-linejoin:round;stroke-miterlimit:4;stroke-dasharray:none;stroke-opacity:1"
     id="path4174-9"
     cx="27.477989"
     cy="36.052483"
     rx="1.9131327"
     ry="1.6205357"
     transform="rotate(-30)" /><path
     style="fill:#e1e1e1;fill-opacity:1;fill-rule:evenodd;stroke:none;stroke-width:0.363637px;stroke-linecap:butt;stroke-linejoin:miter;stroke-opacity:1"
     d="m 40.090909,18.090907 c 0.194872,0.727273 0,2.18182 0.440596,2.85382 1.01395,-1.01396 2.104859,-2.126547 3.195768,-2.85382 z"
     id="path4176-1"
     inkscape:connector-curvature="0"
     sodipodi:nodetypes="cccc" /><path
     style="fill:#e1e1e1;fill-opacity:1;fill-rule:evenodd;stroke:none;stroke-width:0.363637px;stroke-linecap:butt;stroke-linejoin:miter;stroke-opacity:1"
     d="m 37.181818,22.090907 c 0,0 -0.109091,-1.81818 1.090909,-2.909087 1.2,-1.090913 2.545455,-1.102293 2.545455,-1.102293 l -4.170455,-1.659094 z"
     id="path4178-2"
     inkscape:connector-curvature="0"
     sodipodi:nodetypes="czccc" /><circle
     style="fill:#e6e6e6;fill-opacity:1;stroke:none;stroke-width:0.363637;stroke-linecap:round;stroke-linejoin:round;stroke-miterlimit:4;stroke-dasharray:none;stroke-opacity:1"
     id="path4180-7"
     cx="41.362663"
     cy="17.909086"
     r="0.18181819" /><path
     style="fill:#ffffff;fill-opacity:0;stroke:none;stroke-width:0.363637;stroke-linecap:round;stroke-linejoin:round;stroke-miterlimit:4;stroke-dasharray:none;stroke-opacity:1"
     d="m 51,21 c 0,-3.636367 -3.581722,-7.636367 -8,-7.636367 -4.418278,0 -8,4 -8,7.636367 0,-4.418293 3.581722,-8 8,-8 4.418278,0 8,3.581707 8,8 z"
     id="path4188-9-0"
     inkscape:connector-curvature="0"
     sodipodi:nodetypes="cscsc" /><path
     style="fill:#af905e;fill-opacity:1;stroke:none;stroke-width:0.363637;stroke-linecap:round;stroke-linejoin:round;stroke-miterlimit:4;stroke-dasharray:none;stroke-opacity:1"
     d="m 43,29 c 4.418278,0 8,-3.581707 8,-8 0,3.304293 -2.957395,6.9088 -6.812527,7.5396 0,0 -0.360244,0.17516 -0.558271,0.2524 C 43.431175,28.86924 43,29 43,29 Z M 39.900377,27.96098 C 37.021428,26.668833 35,23.73182 35,21 c 0,3.531493 2.288228,6.528507 5.462903,7.589347 L 40.081359,28.28182 Z"
     id="path4188-9-2-9"
     inkscape:connector-curvature="0"
     sodipodi:nodetypes="ccczcccccc" /><path
     d="m 41.999995,18.399997 c 0,0.276277 -0.22372,0.500003 -0.5,0.500003 C 41.223955,18.9 41,18.676275 41,18.399997 41,18.123956 41.223955,17.9 41.499995,17.9 c 0.27628,0 0.5,0.223956 0.5,0.499997 z"
     id="path72-3-3-3-3"
     style="color:#e5e9ef;fill:#221c11;fill-opacity:1;stroke-width:0.00595255"
     class="ColorScheme-Text" /></g></svg>
