<?xml version="1.0" encoding="UTF-8" standalone="no"?>
<svg
   id="svg"
   width="32"
   height="32"
   version="1.1"
   viewBox="0 0 32 32"
   sodipodi:docname="window.svg"
   inkscape:version="1.2.2 (b0a8486541, 2022-12-01)"
   xmlns:inkscape="http://www.inkscape.org/namespaces/inkscape"
   xmlns:sodipodi="http://sodipodi.sourceforge.net/DTD/sodipodi-0.dtd"
   xmlns="http://www.w3.org/2000/svg"
   xmlns:svg="http://www.w3.org/2000/svg"
   xmlns:rdf="http://www.w3.org/1999/02/22-rdf-syntax-ns#"
   xmlns:cc="http://creativecommons.org/ns#"
   xmlns:dc="http://purl.org/dc/elements/1.1/">
  <style
     id="current-color-scheme"
     type="text/css">.ColorScheme-Highlight { color:#7580bc; }
.ColorScheme-Text { color:#e5e9ef; }
</style>
  <metadata
     id="metadata60">
    <rdf:RDF>
      <cc:Work
         rdf:about="">
        <dc:format>image/svg+xml</dc:format>
        <dc:type
           rdf:resource="http://purl.org/dc/dcmitype/StillImage" />
      </cc:Work>
    </rdf:RDF>
  </metadata>
  <sodipodi:namedview
     pagecolor="#333333"
     bordercolor="#000000"
     borderopacity="1"
     objecttolerance="10"
     gridtolerance="10"
     guidetolerance="10"
     inkscape:pageopacity="0"
     inkscape:pageshadow="2"
     inkscape:window-width="1920"
     inkscape:window-height="1000"
     id="namedview58"
     showgrid="true"
     inkscape:zoom="4"
     inkscape:cx="35"
     inkscape:cy="67.625001"
     inkscape:window-x="0"
     inkscape:window-y="0"
     inkscape:window-maximized="1"
     inkscape:current-layer="svg"
     inkscape:lockguides="true"
     inkscape:document-rotation="0"
     inkscape:pagecheckerboard="true"
     inkscape:showpageshadow="true"
     inkscape:deskcolor="#404040"
     showguides="true">
    <inkscape:grid
       type="xygrid"
       id="grid895"
       originx="0"
       originy="0" />
  </sodipodi:namedview>
  <defs
     id="defs4">
    <linearGradient
       id="linearGradient5606"
       inkscape:swatch="solid">
      <stop
         id="stop5608"
         offset="0"
         style="stop-color:#000000" />
    </linearGradient>
  </defs>
  <g
     id="g1397"
     transform="translate(32,-31.999995)">
    <path
       id="rect838-6"
       d="M 0,0 H 22 V 22 H 0 Z"
       fill="none" />
    <g
       id="g1405"
       transform="translate(-32,31.999995)">
      <path
         id="rect838"
         d="M 0,0 H 22 V 22 H 0 Z"
         fill="none" />
    </g>
  </g>
  <g
     id="window-list"
     transform="translate(86,16)"
     style="fill:#e1e1e1;fill-opacity:1">
    <rect
       style="opacity:0.00100002;fill:#e1e1e1;fill-opacity:1"
       width="32"
       height="32"
       x="16"
       y="-16"
       ry="0"
       id="rect1188" />
    <path
       style="color:#eff0f1;fill:#e1e1e1;fill-opacity:1"
       class="ColorScheme-Text"
       d="m 22.5,-12 c -1.385,0 -2.5,1.115 -2.5,2.5 v 5 c 0,1.385 1.115,2.5 2.5,2.5 h 5 c 1.385,0 2.5,-1.115 2.5,-2.5 v -5 c 0,-1.385 -1.115,-2.5 -2.5,-2.5 z m 14,0 c -1.385,0 -2.5,1.115 -2.5,2.5 v 5 c 0,1.385 1.115,2.5 2.5,2.5 h 5 c 1.385,0 2.5,-1.115 2.5,-2.5 v -5 c 0,-1.385 -1.115,-2.5 -2.5,-2.5 z m -14,1 h 5 c 0.848297,0 1.5,0.651703 1.5,1.5 v 5 c 0,0.8482972 -0.651703,1.5 -1.5,1.5 h -5 C 21.651703,-3 21,-3.6517028 21,-4.5 v -5 c 0,-0.848297 0.651703,-1.5 1.5,-1.5 z m 14,0 h 5 c 0.848297,0 1.5,0.651703 1.5,1.5 v 5 c 0,0.8482972 -0.651703,1.5 -1.5,1.5 h -5 C 35.651703,-3 35,-3.6517028 35,-4.5 v -5 c 0,-0.848297 0.651703,-1.5 1.5,-1.5 z M 22.5,2 C 21.115,2 20,3.115 20,4.5 v 5 c 0,1.385 1.115,2.5 2.5,2.5 h 5 C 28.885,12 30,10.885 30,9.5 v -5 C 30,3.115 28.885,2 27.5,2 Z m 14,0 C 35.115,2 34,3.115 34,4.5 v 5 c 0,1.385 1.115,2.5 2.5,2.5 h 5 C 42.885,12 44,10.885 44,9.5 v -5 C 44,3.115 42.885,2 41.5,2 Z m -14,1 h 5 C 28.348297,3 29,3.651703 29,4.5 v 5 c 0,0.848297 -0.651703,1.5 -1.5,1.5 h -5 C 21.651703,11 21,10.348297 21,9.5 v -5 C 21,3.651703 21.651703,3 22.5,3 Z m 14,0 h 5 C 42.348297,3 43,3.651703 43,4.5 v 5 c 0,0.848297 -0.651703,1.5 -1.5,1.5 h -5 C 35.651703,11 35,10.348297 35,9.5 v -5 C 35,3.651703 35.651703,3 36.5,3 Z"
       id="path1190" />
  </g>
  <g
     id="window-close"
     style="fill:#e1e1e1;fill-opacity:1"
     transform="translate(32)">
    <rect
       id="rect36-3"
       style="opacity:0.00100002;fill:#e1e1e1;fill-opacity:1"
       y="0"
       x="0"
       height="32"
       width="32" />
    <path
       d="m 16.000054,18.697511 6.74364,6.743798 c 0.744939,0.744914 1.952789,0.744914 2.697679,0 0.744964,-0.744919 0.744964,-1.952582 0,-2.697504 l -6.743856,-6.743797 6.743866,-6.7438034 c 0.744964,-0.7448935 0.744964,-1.9526124 0,-2.6975278 -0.7449,-0.7448934 -1.952735,-0.7448934 -2.697666,0 L 16.000054,13.302486 9.2561979,6.5586694 c -0.744915,-0.7448925 -1.9526435,-0.7448925 -2.6975293,0 -0.7448915,0.7449151 -0.7448915,1.9526134 0,2.6975284 l 6.7438064,6.7438102 -6.7437986,6.743803 c -0.7448933,0.744921 -0.7448933,1.952584 0,2.697505 0.7448846,0.744912 1.9526126,0.744912 2.697527,0 z"
       style="fill:#e1e1e1;fill-opacity:1;fill-rule:evenodd;stroke:none;stroke-width:1.27162"
       id="path2830" />
  </g>
  <g
     id="22-22-window-close"
     style="fill:#e1e1e1;fill-opacity:1"
     transform="translate(64,10)">
    <rect
       id="rect18-6"
       y="0"
       x="0"
       height="22"
       width="22"
       style="opacity:0.00100002;fill:#e1e1e1;fill-opacity:1" />
    <path
       d="m 11.000067,12.888246 4.720492,4.720663 c 0.521514,0.52145 1.366998,0.52145 1.888394,0 0.521519,-0.521437 0.521519,-1.366807 0,-1.888244 L 12.888247,11.00001 17.608962,6.2793459 c 0.52152,-0.5214329 0.52152,-1.3668311 0,-1.8882644 -0.521406,-0.521433 -1.366876,-0.521433 -1.888397,0 L 11.000067,9.1117491 6.279395,4.3910747 c -0.5215178,-0.5214331 -1.3669341,-0.5214331 -1.8882761,0 -0.521492,0.5214349 -0.521492,1.3668302 0,1.8882657 L 9.1117696,11.00001 4.3911189,15.720669 c -0.521492,0.521437 -0.521492,1.366807 0,1.888245 0.521351,0.521448 1.3667672,0.521448 1.8882761,0 z"
       style="fill:#e1e1e1;fill-opacity:1;fill-rule:evenodd;stroke:none;stroke-width:0.890056"
       id="path2834" />
  </g>
  <g
     id="16-16-window-close"
     transform="translate(86,16)"
     style="fill:#e1e1e1;fill-opacity:1">
    <rect
       id="rect27-75"
       y="1.2512207e-07"
       x="0"
       height="16"
       width="16"
       style="opacity:0.00100002;fill:#e1e1e1;fill-opacity:1;stroke-width:1" />
    <path
       d="m 8.000063,9.6185025 4.04613,4.0462825 c 0.44701,0.44695 1.171719,0.44695 1.61863,0 0.447009,-0.44695 0.447009,-1.17155 0,-1.6185 l -4.04632,-4.0462765 4.04632,-4.046283 c 0.447019,-0.446943 0.447019,-1.17157 0,-1.618513 -0.44691,-0.446943 -1.1716,-0.446943 -1.61862,0 l -4.04614,4.046287 -4.0463005,-4.046293 c -0.44701,-0.446942 -1.17165,-0.446942 -1.61852,0 -0.44699,0.446944 -0.44699,1.171569 0,1.618514 l 4.04627,4.046288 -4.04627,4.0462795 c -0.44699,0.44695 -0.44699,1.17155 0,1.6185 0.44687,0.44695 1.17152,0.44695 1.61852,0 z"
       style="fill:#e1e1e1;fill-opacity:1;fill-rule:evenodd;stroke:none;stroke-width:0.762915"
       id="path2838" />
  </g>
  <g
     id="window-pin"
     transform="translate(-24,8)">
    <path
       id="rect838-67"
       d="M 24,-8 H 56.000001 V 24.000001 H 24 Z"
       fill="none"
       style="stroke-width:1.45455" />
    <path
       style="fill:#e1e1e1;fill-opacity:1;stroke-width:0.0805207"
       d="M 39.999984,20 C 39.591529,20 39,19.76375 39,19.4725 V 8 c 0,-0.29125 0.591529,-0.548032 0.999984,-0.548032 0.408449,0 1.00661,0.236325 1.000016,0.5275 L 40.739726,19.4725 C 40.733132,19.763675 40.408433,20 39.999984,20 Z"
       id="path6-3"
       sodipodi:nodetypes="sssssss" />
    <path
       style="fill:#af905e;fill-opacity:1;stroke-width:0.0805207"
       d="m 40,7.454 v 12.544032 c 0.395291,-0.0094 1,-0.240938 1,-0.52547 V 7.979468 C 41,7.694782 40.39542,7.464532 40,7.454 Z"
       id="path8-6"
       sodipodi:nodetypes="ccssc" />
    <path
       style="fill:#e1e1e1;fill-opacity:1;stroke-width:0.0805207"
       d="M 44,6 43.599993,-2.228124 C 43.552472,-3.2056276 42.487496,-4 41.115175,-4 H 38.485 C 37.112775,-4 35.959871,-3.2058949 36,-2.228124 V 6 h -2 l 0.03125,2 H 46 V 6.605156 Z"
       id="path10-7"
       sodipodi:nodetypes="csssscccccc" />
    <path
       style="fill:#af905e;fill-opacity:1;stroke-width:0.0805207"
       d="M 46,6 H 44 V -2.228124 C 44,-3.206782 42.887321,-4 41.515,-4 H 40 V 8 h 6 z"
       id="path12-5"
       sodipodi:nodetypes="ccsscccc" />
  </g>
  <g
     id="22-22-window-pin"
     transform="translate(-24,8)">
    <path
       id="rect838-6-3"
       d="M 0,0 H 24 V 24 H 0 Z"
       fill="none"
       style="stroke-width:1.09091" />
    <path
       style="fill:#e1e1e1;fill-opacity:1;stroke-width:0.0536807"
       d="M 11.99999,20 C 11.727687,20 11,19.842494 11,19.64834 V 12 c 0,-0.19416 0.727687,-0.36536 0.99999,-0.36536 0.272296,0 0.671076,0.157563 0.666676,0.35168 l -0.173513,7.66202 C 12.48875,19.842454 12.272286,20 11.99999,20 Z"
       id="path6-3-3"
       sodipodi:nodetypes="sssssss" />
    <path
       style="fill:#af905e;fill-opacity:1;stroke-width:0.0536807"
       d="m 12,11.636 v 8.362681 c 0.263528,-0.007 1,-0.160625 1,-0.3503 V 12 c 0,-0.189797 -0.736389,-0.356985 -1,-0.364 z"
       id="path8-6-6"
       sodipodi:nodetypes="ccssc" />
    <path
       style="fill:#e1e1e1;fill-opacity:1;stroke-width:0.0536807"
       d="M 14.666661,11 14.399993,5.181245 C 14.370124,4.5294894 13.658325,4 12.743447,4 H 10.99 C 10.075183,4 8.9626879,4.5299171 9,5.181245 V 11 H 8 l 0.020834,1 H 16 v -0.929889 z"
       id="path10-7-7"
       sodipodi:nodetypes="csssscccccc" />
    <path
       style="fill:#af905e;fill-opacity:1;stroke-width:0.0536807"
       d="M 16,11 H 15 V 5.181245 C 15,4.528818 13.924881,4 13.01,4 H 12 v 8 h 4 z"
       id="path12-5-5"
       sodipodi:nodetypes="ccsscccc" />
  </g>
  <g
     id="window-unpin"
     transform="translate(-24,8)">
    <path
       id="rect838-67-9"
       d="M 24,37 H 56.000001 V 69.000001 H 24 Z"
       fill="none"
       style="stroke-width:1.45455" />
    <path
       style="fill:#e1e1e1;fill-opacity:1;stroke-width:0.0805207"
       d="M 39.999984,65 C 39.591529,65 39,64.76375 39,64.4725 V 53 c 0,-0.29125 0.591529,-0.548032 0.999984,-0.548032 0.408449,0 1.00661,0.236325 1.000016,0.5275 L 40.739726,64.4725 C 40.733132,64.763675 40.408433,65 39.999984,65 Z"
       id="path6-3-36"
       sodipodi:nodetypes="sssssss" />
    <path
       style="fill:#00aad4;fill-opacity:1;stroke-width:0.0805207"
       d="m 40,52.454 v 12.544032 c 0.395291,-0.0094 1,-0.240938 1,-0.52547 V 52.979468 C 41,52.694782 40.39542,52.464532 40,52.454 Z"
       id="path8-6-0"
       sodipodi:nodetypes="ccssc" />
    <path
       style="fill:#e1e1e1;fill-opacity:1;stroke-width:0.0805207"
       d="M 44,51 43.599993,42.771876 C 43.552472,41.794372 42.487496,41 41.115175,41 H 38.485 C 37.112775,41 35.959871,41.794105 36,42.771876 V 51 h -2 l 0.03125,2 H 46 v -1.394844 z"
       id="path10-7-6"
       sodipodi:nodetypes="csssscccccc" />
    <path
       style="fill:#00aad4;fill-opacity:1;stroke-width:0.0805207"
       d="M 46,51 H 44 V 42.771876 C 44,41.793218 42.887321,41 41.515,41 H 40 v 12 h 6 z"
       id="path12-5-2"
       sodipodi:nodetypes="ccsscccc" />
  </g>
  <g
     id="22-22-window-unpin"
     transform="translate(-24,8)">
    <path
       id="rect838-6-3-1"
       d="M 0,45 H 24 V 69 H 0 Z"
       fill="none"
       style="stroke-width:1.09091" />
    <path
       style="fill:#e1e1e1;fill-opacity:1;stroke-width:0.0536807"
       d="M 11.99999,65 C 11.727687,65 11,64.842494 11,64.64834 V 57 c 0,-0.19416 0.727687,-0.36536 0.99999,-0.36536 0.272296,0 0.671076,0.157563 0.666676,0.35168 l -0.173513,7.66202 C 12.48875,64.842454 12.272286,65 11.99999,65 Z"
       id="path6-3-3-8"
       sodipodi:nodetypes="sssssss" />
    <path
       style="fill:#00aad4;fill-opacity:1;stroke-width:0.0536807"
       d="m 12,56.636 v 8.362681 c 0.263528,-0.007 1,-0.160625 1,-0.3503 V 57 c 0,-0.189797 -0.736389,-0.356985 -1,-0.364 z"
       id="path8-6-6-7"
       sodipodi:nodetypes="ccssc" />
    <path
       style="fill:#e1e1e1;fill-opacity:1;stroke-width:0.0536807"
       d="M 14.666661,56 14.399993,50.181245 C 14.370124,49.529489 13.658325,49 12.743447,49 H 10.99 C 10.075183,49 8.9626879,49.529917 9,50.181245 V 56 H 8 l 0.020834,1 H 16 v -0.929889 z"
       id="path10-7-7-9"
       sodipodi:nodetypes="csssscccccc" />
    <path
       style="fill:#00aad4;fill-opacity:1;stroke-width:0.0536807"
       d="M 16,56 H 15 V 50.181245 C 15,49.528818 13.924881,49 13.01,49 H 12 v 8 h 4 z"
       id="path12-5-5-2"
       sodipodi:nodetypes="ccsscccc" />
  </g>
  <g
     id="16-16-window-pin"
     transform="translate(-40,16)">
    <rect
       style="opacity:0.00100002"
       width="16"
       height="16"
       x="0"
       y="0"
       id="rect27-7" />
    <rect
       style="opacity:0.00100002"
       width="16"
       height="16"
       x="0"
       y="0"
       id="rect27-2" />
    <path
       style="fill:#e1e1e1;fill-opacity:1;stroke-width:0.0402607"
       d="M 7.99999,14 C 7.795767,14 7,13.881863 7,13.736258 V 8 C 7,7.85438 7.795767,7.72598 7.99999,7.72598 8.204207,7.72598 9.0159009,7.8552491 9,8 L 8.369872,13.736258 C 8.3539703,13.881017 8.204207,14 7.99999,14 Z"
       id="path6-3-3-3"
       sodipodi:nodetypes="sssssss" />
    <path
       style="fill:#af905e;fill-opacity:1;stroke-width:0.0402607"
       d="m 8,7.727 v 6.272007 c 0.197648,-0.006 1,-0.120468 1,-0.262715 V 8 C 9,7.857646 8.1977,7.732256 8,7.727 Z"
       id="path8-6-6-5"
       sodipodi:nodetypes="ccssc" />
    <path
       style="fill:#e1e1e1;fill-opacity:1;stroke-width:0.0402607"
       d="M 10,7 9.799993,2.885926 C 9.7762328,2.3971864 9.24374,2 8.55758,2 H 7.2425 C 6.556383,2 6,2.3966357 6,2.885926 V 7 H 5 L 5.01563,8 H 11 V 7 Z"
       id="path10-7-7-6"
       sodipodi:nodetypes="csssscccccc" />
    <path
       style="fill:#af905e;fill-opacity:1;stroke-width:0.0402607"
       d="M 11,7 H 10 V 2.885926 C 10,2.396618 9.44366,2 8.7575,2 H 8 v 6 h 3 z"
       id="path12-5-5-2-0"
       sodipodi:nodetypes="ccsscccc" />
  </g>
  <g
     id="16-16-window-unpin"
     transform="translate(-24,8)">
    <rect
       style="opacity:0.00100002"
       width="16"
       height="16"
       x="-16"
       y="53"
       id="rect27-7-3" />
    <rect
       style="opacity:0.00100002"
       width="16"
       height="16"
       x="-16"
       y="53"
       id="rect27-2-7" />
    <path
       style="fill:#e1e1e1;fill-opacity:1;stroke-width:0.0402607"
       d="M -8.00001,67 C -8.204233,67 -9,66.881863 -9,66.736258 V 61 c 0,-0.14562 0.795767,-0.27402 0.99999,-0.27402 0.204217,0 1.0159109,0.129269 1.00001,0.27402 l -0.630128,5.736258 C -7.6460297,66.881017 -7.795793,67 -8.00001,67 Z"
       id="path6-3-3-3-5"
       sodipodi:nodetypes="sssssss" />
    <path
       style="fill:#00aad4;fill-opacity:1;stroke-width:0.0402607"
       d="m -8,60.727 v 6.272007 c 0.197648,-0.006 1,-0.120468 1,-0.262715 V 61 c 0,-0.142354 -0.8023,-0.267744 -1,-0.273 z"
       id="path8-6-6-5-9"
       sodipodi:nodetypes="ccssc" />
    <path
       style="fill:#e1e1e1;fill-opacity:1;stroke-width:0.0402607"
       d="M -6,60 -6.200007,55.885926 C -6.2237672,55.397186 -6.75626,55 -7.44242,55 H -8.7575 C -9.443617,55 -10,55.396636 -10,55.885926 V 60 h -1 l 0.01563,1 H -5 v -1 z"
       id="path10-7-7-6-2"
       sodipodi:nodetypes="csssscccccc" />
    <path
       style="fill:#00aad4;fill-opacity:1;stroke-width:0.0402607"
       d="M -5,60 H -6 V 55.885926 C -6,55.396618 -6.55634,55 -7.2425,55 H -8 v 6 h 3 z"
       id="path12-5-5-2-0-2"
       sodipodi:nodetypes="ccsscccc" />
  </g>
</svg>
