<?xml version="1.0" encoding="UTF-8" standalone="no"?>
<svg
   id="svg18"
   width="32"
   height="32"
   version="1"
   sodipodi:docname="yakuake.svg"
   inkscape:version="1.2.2 (b0a8486541, 2022-12-01)"
   xmlns:inkscape="http://www.inkscape.org/namespaces/inkscape"
   xmlns:sodipodi="http://sodipodi.sourceforge.net/DTD/sodipodi-0.dtd"
   xmlns="http://www.w3.org/2000/svg"
   xmlns:svg="http://www.w3.org/2000/svg">
  <sodipodi:namedview
     id="namedview14"
     pagecolor="#333333"
     bordercolor="#000000"
     borderopacity="1"
     inkscape:showpageshadow="true"
     inkscape:pageopacity="0"
     inkscape:pagecheckerboard="true"
     inkscape:deskcolor="#404040"
     showgrid="true"
     inkscape:zoom="10.429825"
     inkscape:cx="17.449957"
     inkscape:cy="26.894027"
     inkscape:window-width="1920"
     inkscape:window-height="1000"
     inkscape:window-x="0"
     inkscape:window-y="0"
     inkscape:window-maximized="1"
     inkscape:current-layer="svg18">
    <inkscape:grid
       type="xygrid"
       id="grid1478"
       originx="0"
       originy="0" />
  </sodipodi:namedview>
  <defs
     id="l4k1">
    <style
       id="current-color-scheme"
       type="text/css">.ColorScheme-Background {color:#181818; } .ColorScheme-ButtonBackground { color:#343434; } .ColorScheme-Highlight { color:#1a73e8; }
.ColorScheme-Text { 
    color:#d1d5e9;
} .ColorScheme-ViewBackground { color:#242424; } .ColorScheme-NegativeText { color:#ff4747; }</style>
  </defs>
  <g
     id="yakuake">
    <rect
       id="rect11"
       width="32"
       height="32"
       opacity="0.00100002"
       style="fill:#fcfcfc;fill-opacity:1"
       x="0"
       y="0" />
    <path
       id="rect43"
       class="ColorScheme-Text"
       d="M 4,8 V 8 H 28 V 8 Z M 27,8 V 24 H 5 V 8 H 3 v 16 c 0,1 1,2 2,2 h 22 c 1,0 2,-1 2,-2 V 8 Z"
       fill-opacity=".3"
       style="fill:#e1e1e1;fill-opacity:0.60000002"
       sodipodi:nodetypes="cccccccccccccccc" />
    <path
       id="rect63"
       class="ColorScheme-Text"
       d="m 3,6 h 26 c 1,0 1,1 1,1 v 0 c 0,0 0,1 -1,1 H 3 C 2,8 2,7 2,7 V 7 C 2,7 2,6 3,6 Z"
       style="fill:#e1e1e1;fill-opacity:1;stroke-width:0.925815"
       sodipodi:nodetypes="scsssssss" />
    <path
       d="m 12.790732,15.931437 4.835756,-4.504991 c 1.238195,-1.145114 2.560012,0.253091 1.330287,1.407149 l -4.835756,4.505011 c -1.238257,1.145051 -2.560024,-0.253091 -1.330287,-1.407169 z m 5.101807,-4.223575 z"
       id="path8-6-7-36-2-9"
       style="color:#d6dbf1;fill:#e1e1e1;fill-opacity:0.60000002;stroke-width:0.221869"
       sodipodi:nodetypes="cccccccccc"
       class="ColorScheme-Text" />
    <path
       d="m 16.245654,20 h 6.508691 c 1.660873,0.0063 1.660873,1.993619 0,2 h -6.508691 c -1.660872,-0.0063 -1.660872,-1.993619 0,-2 z m 6.508691,0.399995 z"
       id="path8-6-7-36-2-9-3"
       style="color:#d6dbf1;fill:#af905e;fill-opacity:1;stroke-width:0.223758"
       sodipodi:nodetypes="cccccccccc"
       class="ColorScheme-Text" />
    <path
       d="m 14.790987,16.492286 c 2.68e-4,0.158754 -0.06321,0.311081 -0.176413,0.423228 l -4.797338,4.76219 C 8.8221979,22.657069 7.3380769,21.183803 8.3246859,20.196072 L 12.056116,16.492286 8.3246859,12.788501 c -0.411029,-0.409612 -0.411029,-1.072032 0,-1.481628 v 0 c 0.412147,-0.409164 1.0804031,-0.409164 1.4925501,0 l 4.797338,4.762164 c 0.113177,0.112165 0.176682,0.264488 0.176413,0.423249 z m -0.602771,0 z"
       id="path4-3-9-2-3-6"
       style="color:#d6dbf1;fill:#af905e;fill-opacity:1;stroke-width:0.30043"
       sodipodi:nodetypes="ccccccsscccccccccccc"
       class="ColorScheme-Text" />
  </g>
  <g
     id="22-22-yakuake">
    <rect
       id="rect2"
       width="22"
       height="22"
       opacity="0.00100002"
       style="fill:#fcfcfc;fill-opacity:1"
       x="32"
       y="10" />
    <path
       id="rect43-2"
       class="ColorScheme-Text"
       d="m 34.000001,14.6 v 0 h 18.000001 v 0 z M 51,15 V 27 H 35 V 15 h -2 v 12.4 c 0,0.8 1.000001,1.6 1.75,1.6 H 51.25001 C 52.000002,29 53,28.2 53,27.4 V 15 Z"
       fill-opacity=".3"
       style="color:#d1d5e9;fill:#e1e1e1;fill-opacity:0.60000002;stroke-width:0.774596"
       sodipodi:nodetypes="cccccccccccccccc" />
    <path
       id="rect63-9"
       class="ColorScheme-Text"
       d="M 33.25,13 H 52.750008 C 53.5,13 53.5,14 53.5,14 v 0 c 0,0 0,1 -0.749992,1 H 33.25 C 32.5,15 32.5,14 32.5,14 v 0 c 0,0 0,-1 0.75,-1 z"
       style="color:#d1d5e9;fill:#e1e1e1;fill-opacity:1;stroke-width:0.801784"
       sodipodi:nodetypes="scsssssss" />
    <path
       d="m 40.59305,20.94515 3.626818,-3.603992 c 0.928647,-0.916093 1.920005,0.202472 0.997708,1.125717 l -3.626806,3.604011 c -0.928698,0.916038 -1.920023,-0.202477 -0.99772,-1.125736 z m 3.826356,-3.378861 z"
       id="path8-6-7-36-2-9-2"
       style="color:#d6dbf1;fill:#e1e1e1;fill-opacity:0.60000002;stroke-width:0.171859"
       sodipodi:nodetypes="cccccccccc"
       class="ColorScheme-Text" />
    <path
       d="m 42.968844,24 h 5.062325 c 1.291787,0.0062 1.291787,1.993623 0,2 h -5.062325 c -1.291792,-0.0062 -1.291792,-1.993623 0,-2 z m 5.062325,0.399995 z"
       id="path8-6-7-36-2-9-3-7"
       style="color:#d6dbf1;fill:#af905e;fill-opacity:1;stroke-width:0.197337"
       sodipodi:nodetypes="cccccccccc"
       class="ColorScheme-Text" />
    <path
       d="m 42.093237,21.393835 c 2.01e-4,0.127001 -0.04737,0.248862 -0.132312,0.338576 l -3.597999,3.809753 c -0.74628,0.783495 -1.859369,-0.395118 -1.11941,-1.185302 l 2.798567,-2.963027 -2.798567,-2.963031 c -0.308276,-0.327686 -0.308276,-0.857625 0,-1.185302 v 0 c 0.309107,-0.327336 0.810302,-0.327336 1.11941,0 l 3.597999,3.809731 c 0.0849,0.08974 0.132514,0.211589 0.132312,0.338602 z m -0.452073,0 z"
       id="path4-3-9-2-1-7-5"
       style="color:#d6dbf1;fill:#af905e;fill-opacity:1;stroke-width:0.232714"
       sodipodi:nodetypes="ccccccsscccccccccccc"
       class="ColorScheme-Text" />
  </g>
</svg>
